# https://github.com/mikedh/trimesh

o LeftShoe
v -0.41000000 0.03000000 -0.27000000 0.82352941 0.17647059 0.21568627
v -0.41000000 0.03000000 0.31000000 0.82352941 0.17647059 0.21568627
v -0.41000000 0.21000000 -0.27000000 0.82352941 0.17647059 0.21568627
v -0.41000000 0.21000000 0.31000000 0.82352941 0.17647059 0.21568627
v -0.07000000 0.03000000 -0.27000000 0.82352941 0.17647059 0.21568627
v -0.07000000 0.03000000 0.31000000 0.82352941 0.17647059 0.21568627
v -0.07000000 0.21000000 -0.27000000 0.82352941 0.17647059 0.21568627
v -0.07000000 0.21000000 0.31000000 0.82352941 0.17647059 0.21568627
f 2 4 1
f 5 2 1
f 1 4 3
f 3 5 1
f 2 8 4
f 6 2 5
f 6 8 2
f 4 8 3
f 7 5 3
f 3 8 7
f 7 6 5
f 8 6 7

o RightShoe
v 0.07000000 0.03000000 -0.27000000 0.82352941 0.17647059 0.21568627
v 0.07000000 0.03000000 0.31000000 0.82352941 0.17647059 0.21568627
v 0.07000000 0.21000000 -0.27000000 0.82352941 0.17647059 0.21568627
v 0.07000000 0.21000000 0.31000000 0.82352941 0.17647059 0.21568627
v 0.41000000 0.03000000 -0.27000000 0.82352941 0.17647059 0.21568627
v 0.41000000 0.03000000 0.31000000 0.82352941 0.17647059 0.21568627
v 0.41000000 0.21000000 -0.27000000 0.82352941 0.17647059 0.21568627
v 0.41000000 0.21000000 0.31000000 0.82352941 0.17647059 0.21568627
f 10 12 9
f 13 10 9
f 9 12 11
f 11 13 9
f 10 16 12
f 14 10 13
f 14 16 10
f 12 16 11
f 15 13 11
f 11 16 15
f 15 14 13
f 16 14 15

o LeftLeg
v -0.34500000 0.17000000 -0.12500000 0.17647059 0.13725490 0.21568627
v -0.34500000 0.17000000 0.12500000 0.17647059 0.13725490 0.21568627
v -0.34500000 0.89000000 -0.12500000 0.17647059 0.13725490 0.21568627
v -0.34500000 0.89000000 0.12500000 0.17647059 0.13725490 0.21568627
v -0.09500000 0.17000000 -0.12500000 0.17647059 0.13725490 0.21568627
v -0.09500000 0.17000000 0.12500000 0.17647059 0.13725490 0.21568627
v -0.09500000 0.89000000 -0.12500000 0.17647059 0.13725490 0.21568627
v -0.09500000 0.89000000 0.12500000 0.17647059 0.13725490 0.21568627
f 18 20 17
f 21 18 17
f 17 20 19
f 19 21 17
f 18 24 20
f 22 18 21
f 22 24 18
f 20 24 19
f 23 21 19
f 19 24 23
f 23 22 21
f 24 22 23

o RightLeg
v 0.09500000 0.17000000 -0.12500000 0.17647059 0.13725490 0.21568627
v 0.09500000 0.17000000 0.12500000 0.17647059 0.13725490 0.21568627
v 0.09500000 0.89000000 -0.12500000 0.17647059 0.13725490 0.21568627
v 0.09500000 0.89000000 0.12500000 0.17647059 0.13725490 0.21568627
v 0.34500000 0.17000000 -0.12500000 0.17647059 0.13725490 0.21568627
v 0.34500000 0.17000000 0.12500000 0.17647059 0.13725490 0.21568627
v 0.34500000 0.89000000 -0.12500000 0.17647059 0.13725490 0.21568627
v 0.34500000 0.89000000 0.12500000 0.17647059 0.13725490 0.21568627
f 26 28 25
f 29 26 25
f 25 28 27
f 27 29 25
f 26 32 28
f 30 26 29
f 30 32 26
f 28 32 27
f 31 29 27
f 27 32 31
f 31 30 29
f 32 30 31

o Torso
v -0.39000000 0.72500000 -0.20000000 0.96078431 0.86274510 0.92156863
v -0.39000000 0.72500000 0.20000000 0.96078431 0.86274510 0.92156863
v -0.39000000 1.67500000 -0.20000000 0.96078431 0.86274510 0.92156863
v -0.39000000 1.67500000 0.20000000 0.96078431 0.86274510 0.92156863
v 0.39000000 0.72500000 -0.20000000 0.96078431 0.86274510 0.92156863
v 0.39000000 0.72500000 0.20000000 0.96078431 0.86274510 0.92156863
v 0.39000000 1.67500000 -0.20000000 0.96078431 0.86274510 0.92156863
v 0.39000000 1.67500000 0.20000000 0.96078431 0.86274510 0.92156863
f 34 36 33
f 37 34 33
f 33 36 35
f 35 37 33
f 34 40 36
f 38 34 37
f 38 40 34
f 36 40 35
f 39 37 35
f 35 40 39
f 39 38 37
f 40 38 39

o Jacket
v -0.46000000 0.82000000 -0.24000000 0.82352941 0.27450980 0.58823529
v -0.46000000 0.82000000 0.22000000 0.82352941 0.27450980 0.58823529
v -0.46000000 1.74000000 -0.24000000 0.82352941 0.27450980 0.58823529
v -0.46000000 1.74000000 0.22000000 0.82352941 0.27450980 0.58823529
v 0.46000000 0.82000000 -0.24000000 0.82352941 0.27450980 0.58823529
v 0.46000000 0.82000000 0.22000000 0.82352941 0.27450980 0.58823529
v 0.46000000 1.74000000 -0.24000000 0.82352941 0.27450980 0.58823529
v 0.46000000 1.74000000 0.22000000 0.82352941 0.27450980 0.58823529
f 42 44 41
f 45 42 41
f 41 44 43
f 43 45 41
f 42 48 44
f 46 42 45
f 46 48 42
f 44 48 43
f 47 45 43
f 43 48 47
f 47 46 45
f 48 46 47

o JacketCenter
v -0.12500000 0.88000000 -0.06000000 0.96078431 0.86274510 0.92156863
v -0.12500000 0.88000000 0.42000000 0.96078431 0.86274510 0.92156863
v -0.12500000 1.70000000 -0.06000000 0.96078431 0.86274510 0.92156863
v -0.12500000 1.70000000 0.42000000 0.96078431 0.86274510 0.92156863
v 0.12500000 0.88000000 -0.06000000 0.96078431 0.86274510 0.92156863
v 0.12500000 0.88000000 0.42000000 0.96078431 0.86274510 0.92156863
v 0.12500000 1.70000000 -0.06000000 0.96078431 0.86274510 0.92156863
v 0.12500000 1.70000000 0.42000000 0.96078431 0.86274510 0.92156863
f 50 52 49
f 53 50 49
f 49 52 51
f 51 53 49
f 50 56 52
f 54 50 53
f 54 56 50
f 52 56 51
f 55 53 51
f 51 56 55
f 55 54 53
f 56 54 55

o LeftArm
v -0.66243891 0.86000000 -0.12370863 0.82352941 0.27450980 0.58823529
v -0.69531530 0.86000000 0.09382101 0.82352941 0.27450980 0.58823529
v -0.66243891 1.64000000 -0.12370863 0.82352941 0.27450980 0.58823529
v -0.69531530 1.64000000 0.09382101 0.82352941 0.27450980 0.58823529
v -0.46468470 0.86000000 -0.09382101 0.82352941 0.27450980 0.58823529
v -0.49756109 0.86000000 0.12370863 0.82352941 0.27450980 0.58823529
v -0.46468470 1.64000000 -0.09382101 0.82352941 0.27450980 0.58823529
v -0.49756109 1.64000000 0.12370863 0.82352941 0.27450980 0.58823529
f 58 60 57
f 61 58 57
f 57 60 59
f 59 61 57
f 58 64 60
f 62 58 61
f 62 64 58
f 60 64 59
f 63 61 59
f 59 64 63
f 63 62 61
f 64 62 63

o RightArm
v 0.46468470 0.86000000 -0.09382101 0.82352941 0.27450980 0.58823529
v 0.49756109 0.86000000 0.12370863 0.82352941 0.27450980 0.58823529
v 0.46468470 1.64000000 -0.09382101 0.82352941 0.27450980 0.58823529
v 0.49756109 1.64000000 0.12370863 0.82352941 0.27450980 0.58823529
v 0.66243891 0.86000000 -0.12370863 0.82352941 0.27450980 0.58823529
v 0.69531530 0.86000000 0.09382101 0.82352941 0.27450980 0.58823529
v 0.66243891 1.64000000 -0.12370863 0.82352941 0.27450980 0.58823529
v 0.69531530 1.64000000 0.09382101 0.82352941 0.27450980 0.58823529
f 66 68 65
f 69 66 65
f 65 68 67
f 67 69 65
f 66 72 68
f 70 66 69
f 70 72 66
f 68 72 67
f 71 69 67
f 67 72 71
f 71 70 69
f 72 70 71

o LeftHand
v -0.75360236 0.99909111 0.00000000 0.94117647 0.70588235 0.58823529
v -0.60639764 0.99909111 0.00000000 0.94117647 0.70588235 0.58823529
v -0.75360236 0.76090889 0.00000000 0.94117647 0.70588235 0.58823529
v -0.60639764 0.76090889 0.00000000 0.94117647 0.70588235 0.58823529
v -0.68000000 0.80639764 0.11909111 0.94117647 0.70588235 0.58823529
v -0.68000000 0.95360236 0.11909111 0.94117647 0.70588235 0.58823529
v -0.68000000 0.80639764 -0.11909111 0.94117647 0.70588235 0.58823529
v -0.68000000 0.95360236 -0.11909111 0.94117647 0.70588235 0.58823529
v -0.56090889 0.88000000 -0.07360236 0.94117647 0.70588235 0.58823529
v -0.56090889 0.88000000 0.07360236 0.94117647 0.70588235 0.58823529
v -0.79909111 0.88000000 -0.07360236 0.94117647 0.70588235 0.58823529
v -0.79909111 0.88000000 0.07360236 0.94117647 0.70588235 0.58823529
v -0.68000000 1.02000000 0.00000000 0.94117647 0.70588235 0.58823529
v -0.68000000 0.74000000 0.00000000 0.94117647 0.70588235 0.58823529
v -0.72326238 0.76673762 0.07000000 0.94117647 0.70588235 0.58823529
v -0.63673762 0.76673762 0.07000000 0.94117647 0.70588235 0.58823529
v -0.72326238 0.99326238 0.07000000 0.94117647 0.70588235 0.58823529
v -0.63673762 0.99326238 0.07000000 0.94117647 0.70588235 0.58823529
v -0.68000000 0.88000000 0.14000000 0.94117647 0.70588235 0.58823529
v -0.72326238 0.76673762 -0.07000000 0.94117647 0.70588235 0.58823529
v -0.63673762 0.76673762 -0.07000000 0.94117647 0.70588235 0.58823529
v -0.72326238 0.99326238 -0.07000000 0.94117647 0.70588235 0.58823529
v -0.63673762 0.99326238 -0.07000000 0.94117647 0.70588235 0.58823529
v -0.68000000 0.88000000 -0.14000000 0.94117647 0.70588235 0.58823529
v -0.56673762 0.95000000 -0.04326238 0.94117647 0.70588235 0.58823529
v -0.56673762 0.81000000 -0.04326238 0.94117647 0.70588235 0.58823529
v -0.61000000 0.83673762 -0.11326238 0.94117647 0.70588235 0.58823529
v -0.61000000 0.92326238 -0.11326238 0.94117647 0.70588235 0.58823529
v -0.56673762 0.95000000 0.04326238 0.94117647 0.70588235 0.58823529
v -0.56673762 0.81000000 0.04326238 0.94117647 0.70588235 0.58823529
v -0.61000000 0.83673762 0.11326238 0.94117647 0.70588235 0.58823529
v -0.61000000 0.92326238 0.11326238 0.94117647 0.70588235 0.58823529
v -0.54000000 0.88000000 0.00000000 0.94117647 0.70588235 0.58823529
v -0.79326238 0.95000000 -0.04326238 0.94117647 0.70588235 0.58823529
v -0.79326238 0.81000000 -0.04326238 0.94117647 0.70588235 0.58823529
v -0.75000000 0.83673762 -0.11326238 0.94117647 0.70588235 0.58823529
v -0.75000000 0.92326238 -0.11326238 0.94117647 0.70588235 0.58823529
v -0.79326238 0.95000000 0.04326238 0.94117647 0.70588235 0.58823529
v -0.79326238 0.81000000 0.04326238 0.94117647 0.70588235 0.58823529
v -0.75000000 0.83673762 0.11326238 0.94117647 0.70588235 0.58823529
v -0.75000000 0.92326238 0.11326238 0.94117647 0.70588235 0.58823529
v -0.82000000 0.88000000 0.00000000 0.94117647 0.70588235 0.58823529
v -0.71825731 1.01467137 0.00000000 0.94117647 0.70588235 0.58823529
v -0.64174269 1.01467137 0.00000000 0.94117647 0.70588235 0.58823529
v -0.71825731 0.74532863 0.00000000 0.94117647 0.70588235 0.58823529
v -0.64174269 0.74532863 0.00000000 0.94117647 0.70588235 0.58823529
v -0.74074440 0.75922641 0.03638487 0.94117647 0.70588235 0.58823529
v -0.70248708 0.78287073 0.09828650 0.94117647 0.70588235 0.58823529
v -0.70274438 0.74685209 0.03680118 0.94117647 0.70588235 0.58823529
v -0.61925560 0.75922641 0.03638487 0.94117647 0.70588235 0.58823529
v -0.65751292 0.78287073 0.09828650 0.94117647 0.70588235 0.58823529
v -0.65725562 0.74685209 0.03680118 0.94117647 0.70588235 0.58823529
v -0.68000000 0.76090889 0.07360236 0.94117647 0.70588235 0.58823529
v -0.74074440 1.00077359 0.03638487 0.94117647 0.70588235 0.58823529
v -0.70248708 0.97712927 0.09828650 0.94117647 0.70588235 0.58823529
v -0.70274438 1.01314791 0.03680118 0.94117647 0.70588235 0.58823529
v -0.61925560 1.00077359 0.03638487 0.94117647 0.70588235 0.58823529
v -0.65751292 0.97712927 0.09828650 0.94117647 0.70588235 0.58823529
v -0.65725562 1.01314791 0.03680118 0.94117647 0.70588235 0.58823529
v -0.68000000 0.99909111 0.07360236 0.94117647 0.70588235 0.58823529
v -0.68000000 0.84174269 0.13467137 0.94117647 0.70588235 0.58823529
v -0.68000000 0.91825731 0.13467137 0.94117647 0.70588235 0.58823529
v -0.74074440 0.75922641 -0.03638487 0.94117647 0.70588235 0.58823529
v -0.70248708 0.78287073 -0.09828650 0.94117647 0.70588235 0.58823529
v -0.70274438 0.74685209 -0.03680118 0.94117647 0.70588235 0.58823529
v -0.61925560 0.75922641 -0.03638487 0.94117647 0.70588235 0.58823529
v -0.65751292 0.78287073 -0.09828650 0.94117647 0.70588235 0.58823529
v -0.65725562 0.74685209 -0.03680118 0.94117647 0.70588235 0.58823529
v -0.68000000 0.76090889 -0.07360236 0.94117647 0.70588235 0.58823529
v -0.74074440 1.00077359 -0.03638487 0.94117647 0.70588235 0.58823529
v -0.70248708 0.97712927 -0.09828650 0.94117647 0.70588235 0.58823529
v -0.70274438 1.01314791 -0.03680118 0.94117647 0.70588235 0.58823529
v -0.61925560 1.00077359 -0.03638487 0.94117647 0.70588235 0.58823529
v -0.65751292 0.97712927 -0.09828650 0.94117647 0.70588235 0.58823529
v -0.65725562 1.01314791 -0.03680118 0.94117647 0.70588235 0.58823529
v -0.68000000 0.99909111 -0.07360236 0.94117647 0.70588235 0.58823529
v -0.68000000 0.84174269 -0.13467137 0.94117647 0.70588235 0.58823529
v -0.68000000 0.91825731 -0.13467137 0.94117647 0.70588235 0.58823529
v -0.58287073 0.97828650 -0.02248708 0.94117647 0.70588235 0.58823529
v -0.55922641 0.91638487 -0.06074440 0.94117647 0.70588235 0.58823529
v -0.59771006 0.97634673 -0.05954556 0.94117647 0.70588235 0.58823529
v -0.58287073 0.78171350 -0.02248708 0.94117647 0.70588235 0.58823529
v -0.55922641 0.84361513 -0.06074440 0.94117647 0.70588235 0.58823529
v -0.59771006 0.78365327 -0.05954556 0.94117647 0.70588235 0.58823529
v -0.64361513 0.81925560 -0.12077359 0.94117647 0.70588235 0.58823529
v -0.58171350 0.85751292 -0.09712927 0.94117647 0.70588235 0.58823529
v -0.62045444 0.79771006 -0.09634673 0.94117647 0.70588235 0.58823529
v -0.64319882 0.85725562 -0.13314791 0.94117647 0.70588235 0.58823529
v -0.58365327 0.82045444 -0.08228994 0.94117647 0.70588235 0.58823529
v -0.64361513 0.94074440 -0.12077359 0.94117647 0.70588235 0.58823529
v -0.58171350 0.90248708 -0.09712927 0.94117647 0.70588235 0.58823529
v -0.62045444 0.96228994 -0.09634673 0.94117647 0.70588235 0.58823529
v -0.64319882 0.90274438 -0.13314791 0.94117647 0.70588235 0.58823529
v -0.58365327 0.93954556 -0.08228994 0.94117647 0.70588235 0.58823529
v -0.60639764 0.88000000 -0.11909111 0.94117647 0.70588235 0.58823529
v -0.58287073 0.97828650 0.02248708 0.94117647 0.70588235 0.58823529
v -0.55922641 0.91638487 0.06074440 0.94117647 0.70588235 0.58823529
v -0.59771006 0.97634673 0.05954556 0.94117647 0.70588235 0.58823529
v -0.56090889 0.95360236 0.00000000 0.94117647 0.70588235 0.58823529
v -0.58287073 0.78171350 0.02248708 0.94117647 0.70588235 0.58823529
v -0.55922641 0.84361513 0.06074440 0.94117647 0.70588235 0.58823529
v -0.59771006 0.78365327 0.05954556 0.94117647 0.70588235 0.58823529
v -0.56090889 0.80639764 0.00000000 0.94117647 0.70588235 0.58823529
v -0.64361513 0.81925560 0.12077359 0.94117647 0.70588235 0.58823529
v -0.58171350 0.85751292 0.09712927 0.94117647 0.70588235 0.58823529
v -0.62045444 0.79771006 0.09634673 0.94117647 0.70588235 0.58823529
v -0.64319882 0.85725562 0.13314791 0.94117647 0.70588235 0.58823529
v -0.58365327 0.82045444 0.08228994 0.94117647 0.70588235 0.58823529
v -0.64361513 0.94074440 0.12077359 0.94117647 0.70588235 0.58823529
v -0.58171350 0.90248708 0.09712927 0.94117647 0.70588235 0.58823529
v -0.62045444 0.96228994 0.09634673 0.94117647 0.70588235 0.58823529
v -0.64319882 0.90274438 0.13314791 0.94117647 0.70588235 0.58823529
v -0.58365327 0.93954556 0.08228994 0.94117647 0.70588235 0.58823529
v -0.60639764 0.88000000 0.11909111 0.94117647 0.70588235 0.58823529
v -0.54532863 0.88000000 -0.03825731 0.94117647 0.70588235 0.58823529
v -0.54532863 0.88000000 0.03825731 0.94117647 0.70588235 0.58823529
v -0.54685209 0.91680118 -0.02274438 0.94117647 0.70588235 0.58823529
v -0.54685209 0.84319882 -0.02274438 0.94117647 0.70588235 0.58823529
v -0.54685209 0.91680118 0.02274438 0.94117647 0.70588235 0.58823529
v -0.54685209 0.84319882 0.02274438 0.94117647 0.70588235 0.58823529
v -0.77712927 0.97828650 -0.02248708 0.94117647 0.70588235 0.58823529
v -0.80077359 0.91638487 -0.06074440 0.94117647 0.70588235 0.58823529
v -0.76228994 0.97634673 -0.05954556 0.94117647 0.70588235 0.58823529
v -0.77712927 0.78171350 -0.02248708 0.94117647 0.70588235 0.58823529
v -0.80077359 0.84361513 -0.06074440 0.94117647 0.70588235 0.58823529
v -0.76228994 0.78365327 -0.05954556 0.94117647 0.70588235 0.58823529
v -0.71638487 0.81925560 -0.12077359 0.94117647 0.70588235 0.58823529
v -0.77828650 0.85751292 -0.09712927 0.94117647 0.70588235 0.58823529
v -0.73954556 0.79771006 -0.09634673 0.94117647 0.70588235 0.58823529
v -0.71680118 0.85725562 -0.13314791 0.94117647 0.70588235 0.58823529
v -0.77634673 0.82045444 -0.08228994 0.94117647 0.70588235 0.58823529
v -0.71638487 0.94074440 -0.12077359 0.94117647 0.70588235 0.58823529
v -0.77828650 0.90248708 -0.09712927 0.94117647 0.70588235 0.58823529
v -0.73954556 0.96228994 -0.09634673 0.94117647 0.70588235 0.58823529
v -0.71680118 0.90274438 -0.13314791 0.94117647 0.70588235 0.58823529
v -0.77634673 0.93954556 -0.08228994 0.94117647 0.70588235 0.58823529
v -0.75360236 0.88000000 -0.11909111 0.94117647 0.70588235 0.58823529
v -0.77712927 0.97828650 0.02248708 0.94117647 0.70588235 0.58823529
v -0.80077359 0.91638487 0.06074440 0.94117647 0.70588235 0.58823529
v -0.76228994 0.97634673 0.05954556 0.94117647 0.70588235 0.58823529
v -0.79909111 0.95360236 0.00000000 0.94117647 0.70588235 0.58823529
v -0.77712927 0.78171350 0.02248708 0.94117647 0.70588235 0.58823529
v -0.80077359 0.84361513 0.06074440 0.94117647 0.70588235 0.58823529
v -0.76228994 0.78365327 0.05954556 0.94117647 0.70588235 0.58823529
v -0.79909111 0.80639764 0.00000000 0.94117647 0.70588235 0.58823529
v -0.71638487 0.81925560 0.12077359 0.94117647 0.70588235 0.58823529
v -0.77828650 0.85751292 0.09712927 0.94117647 0.70588235 0.58823529
v -0.73954556 0.79771006 0.09634673 0.94117647 0.70588235 0.58823529
v -0.71680118 0.85725562 0.13314791 0.94117647 0.70588235 0.58823529
v -0.77634673 0.82045444 0.08228994 0.94117647 0.70588235 0.58823529
v -0.71638487 0.94074440 0.12077359 0.94117647 0.70588235 0.58823529
v -0.77828650 0.90248708 0.09712927 0.94117647 0.70588235 0.58823529
v -0.73954556 0.96228994 0.09634673 0.94117647 0.70588235 0.58823529
v -0.71680118 0.90274438 0.13314791 0.94117647 0.70588235 0.58823529
v -0.77634673 0.93954556 0.08228994 0.94117647 0.70588235 0.58823529
v -0.75360236 0.88000000 0.11909111 0.94117647 0.70588235 0.58823529
v -0.81467137 0.88000000 -0.03825731 0.94117647 0.70588235 0.58823529
v -0.81467137 0.88000000 0.03825731 0.94117647 0.70588235 0.58823529
v -0.81314791 0.91680118 -0.02274438 0.94117647 0.70588235 0.58823529
v -0.81314791 0.84319882 -0.02274438 0.94117647 0.70588235 0.58823529
v -0.81314791 0.91680118 0.02274438 0.94117647 0.70588235 0.58823529
v -0.81314791 0.84319882 0.02274438 0.94117647 0.70588235 0.58823529
f 73 210 126
f 210 110 212
f 126 212 89
f 210 212 126
f 110 211 227
f 211 84 224
f 227 224 113
f 211 224 227
f 89 225 127
f 225 113 223
f 127 223 78
f 225 223 127
f 110 227 212
f 227 113 225
f 212 225 89
f 227 225 212
f 73 126 115
f 126 89 128
f 115 128 85
f 126 128 115
f 89 127 132
f 127 78 130
f 132 130 90
f 127 130 132
f 85 131 116
f 131 90 129
f 116 129 74
f 131 129 116
f 89 132 128
f 132 90 131
f 128 131 85
f 132 131 128
f 73 115 142
f 115 85 144
f 142 144 94
f 115 144 142
f 85 116 147
f 116 74 145
f 147 145 95
f 116 145 147
f 94 148 143
f 148 95 146
f 143 146 80
f 148 146 143
f 85 147 144
f 147 95 148
f 144 148 94
f 147 148 144
f 73 142 193
f 142 94 195
f 193 195 106
f 142 195 193
f 94 143 206
f 143 80 204
f 206 204 109
f 143 204 206
f 106 208 194
f 208 109 205
f 194 205 83
f 208 205 194
f 94 206 195
f 206 109 208
f 195 208 106
f 206 208 195
f 73 193 210
f 193 106 213
f 210 213 110
f 193 213 210
f 106 194 231
f 194 83 229
f 231 229 114
f 194 229 231
f 110 233 211
f 233 114 230
f 211 230 84
f 233 230 211
f 106 231 213
f 231 114 233
f 213 233 110
f 231 233 213
f 74 129 168
f 129 90 170
f 168 170 101
f 129 170 168
f 90 130 183
f 130 78 181
f 183 181 104
f 130 181 183
f 101 185 169
f 185 104 182
f 169 182 82
f 185 182 169
f 90 183 170
f 183 104 185
f 170 185 101
f 183 185 170
f 78 223 134
f 223 113 226
f 134 226 91
f 223 226 134
f 113 224 228
f 224 84 219
f 228 219 112
f 224 219 228
f 91 221 133
f 221 112 218
f 133 218 77
f 221 218 133
f 113 228 226
f 228 112 221
f 226 221 91
f 228 221 226
f 84 230 215
f 230 114 234
f 215 234 111
f 230 234 215
f 114 229 232
f 229 83 197
f 232 197 107
f 229 197 232
f 111 217 214
f 217 107 196
f 214 196 75
f 217 196 214
f 114 232 234
f 232 107 217
f 234 217 111
f 232 217 234
f 83 205 200
f 205 109 209
f 200 209 108
f 205 209 200
f 109 204 207
f 204 80 150
f 207 150 96
f 204 150 207
f 108 202 199
f 202 96 149
f 199 149 79
f 202 149 199
f 109 207 209
f 207 96 202
f 209 202 108
f 207 202 209
f 80 146 162
f 146 95 164
f 162 164 100
f 146 164 162
f 95 145 153
f 145 74 151
f 153 151 97
f 145 151 153
f 100 166 163
f 166 97 152
f 163 152 81
f 166 152 163
f 95 153 164
f 153 97 166
f 164 166 100
f 153 166 164
f 76 172 122
f 172 102 174
f 122 174 88
f 172 174 122
f 102 173 180
f 173 82 177
f 180 177 103
f 173 177 180
f 88 178 123
f 178 103 176
f 123 176 77
f 178 176 123
f 102 180 174
f 180 103 178
f 174 178 88
f 180 178 174
f 76 122 118
f 122 88 124
f 118 124 86
f 122 124 118
f 88 123 125
f 123 77 120
f 125 120 87
f 123 120 125
f 86 121 117
f 121 87 119
f 117 119 75
f 121 119 117
f 88 125 124
f 125 87 121
f 124 121 86
f 125 121 124
f 76 118 138
f 118 86 140
f 138 140 93
f 118 140 138
f 86 117 137
f 117 75 135
f 137 135 92
f 117 135 137
f 93 141 139
f 141 92 136
f 139 136 79
f 141 136 139
f 86 137 140
f 137 92 141
f 140 141 93
f 137 141 140
f 76 138 154
f 138 93 156
f 154 156 98
f 138 156 154
f 93 139 159
f 139 79 157
f 159 157 99
f 139 157 159
f 98 161 155
f 161 99 158
f 155 158 81
f 161 158 155
f 93 159 156
f 159 99 161
f 156 161 98
f 159 161 156
f 76 154 172
f 154 98 175
f 172 175 102
f 154 175 172
f 98 155 190
f 155 81 187
f 190 187 105
f 155 187 190
f 102 192 173
f 192 105 188
f 173 188 82
f 192 188 173
f 98 190 175
f 190 105 192
f 175 192 102
f 190 192 175
f 77 176 133
f 176 103 179
f 133 179 91
f 176 179 133
f 103 177 186
f 177 82 182
f 186 182 104
f 177 182 186
f 91 184 134
f 184 104 181
f 134 181 78
f 184 181 134
f 103 186 179
f 186 104 184
f 179 184 91
f 186 184 179
f 75 119 214
f 119 87 216
f 214 216 111
f 119 216 214
f 87 120 220
f 120 77 218
f 220 218 112
f 120 218 220
f 111 222 215
f 222 112 219
f 215 219 84
f 222 219 215
f 87 220 216
f 220 112 222
f 216 222 111
f 220 222 216
f 79 136 199
f 136 92 201
f 199 201 108
f 136 201 199
f 92 135 198
f 135 75 196
f 198 196 107
f 135 196 198
f 108 203 200
f 203 107 197
f 200 197 83
f 203 197 200
f 92 198 201
f 198 107 203
f 201 203 108
f 198 203 201
f 81 158 163
f 158 99 167
f 163 167 100
f 158 167 163
f 99 157 160
f 157 79 149
f 160 149 96
f 157 149 160
f 100 165 162
f 165 96 150
f 162 150 80
f 165 150 162
f 99 160 167
f 160 96 165
f 167 165 100
f 160 165 167
f 82 188 169
f 188 105 191
f 169 191 101
f 188 191 169
f 105 187 189
f 187 81 152
f 189 152 97
f 187 152 189
f 101 171 168
f 171 97 151
f 168 151 74
f 171 151 168
f 105 189 191
f 189 97 171
f 191 171 101
f 189 171 191

o RightHand
v 0.60639764 0.99909111 0.00000000 0.94117647 0.70588235 0.58823529
v 0.75360236 0.99909111 0.00000000 0.94117647 0.70588235 0.58823529
v 0.60639764 0.76090889 0.00000000 0.94117647 0.70588235 0.58823529
v 0.75360236 0.76090889 0.00000000 0.94117647 0.70588235 0.58823529
v 0.68000000 0.80639764 0.11909111 0.94117647 0.70588235 0.58823529
v 0.68000000 0.95360236 0.11909111 0.94117647 0.70588235 0.58823529
v 0.68000000 0.80639764 -0.11909111 0.94117647 0.70588235 0.58823529
v 0.68000000 0.95360236 -0.11909111 0.94117647 0.70588235 0.58823529
v 0.79909111 0.88000000 -0.07360236 0.94117647 0.70588235 0.58823529
v 0.79909111 0.88000000 0.07360236 0.94117647 0.70588235 0.58823529
v 0.56090889 0.88000000 -0.07360236 0.94117647 0.70588235 0.58823529
v 0.56090889 0.88000000 0.07360236 0.94117647 0.70588235 0.58823529
v 0.68000000 1.02000000 0.00000000 0.94117647 0.70588235 0.58823529
v 0.68000000 0.74000000 0.00000000 0.94117647 0.70588235 0.58823529
v 0.63673762 0.76673762 0.07000000 0.94117647 0.70588235 0.58823529
v 0.72326238 0.76673762 0.07000000 0.94117647 0.70588235 0.58823529
v 0.63673762 0.99326238 0.07000000 0.94117647 0.70588235 0.58823529
v 0.72326238 0.99326238 0.07000000 0.94117647 0.70588235 0.58823529
v 0.68000000 0.88000000 0.14000000 0.94117647 0.70588235 0.58823529
v 0.63673762 0.76673762 -0.07000000 0.94117647 0.70588235 0.58823529
v 0.72326238 0.76673762 -0.07000000 0.94117647 0.70588235 0.58823529
v 0.63673762 0.99326238 -0.07000000 0.94117647 0.70588235 0.58823529
v 0.72326238 0.99326238 -0.07000000 0.94117647 0.70588235 0.58823529
v 0.68000000 0.88000000 -0.14000000 0.94117647 0.70588235 0.58823529
v 0.79326238 0.95000000 -0.04326238 0.94117647 0.70588235 0.58823529
v 0.79326238 0.81000000 -0.04326238 0.94117647 0.70588235 0.58823529
v 0.75000000 0.83673762 -0.11326238 0.94117647 0.70588235 0.58823529
v 0.75000000 0.92326238 -0.11326238 0.94117647 0.70588235 0.58823529
v 0.79326238 0.95000000 0.04326238 0.94117647 0.70588235 0.58823529
v 0.79326238 0.81000000 0.04326238 0.94117647 0.70588235 0.58823529
v 0.75000000 0.83673762 0.11326238 0.94117647 0.70588235 0.58823529
v 0.75000000 0.92326238 0.11326238 0.94117647 0.70588235 0.58823529
v 0.82000000 0.88000000 0.00000000 0.94117647 0.70588235 0.58823529
v 0.56673762 0.95000000 -0.04326238 0.94117647 0.70588235 0.58823529
v 0.56673762 0.81000000 -0.04326238 0.94117647 0.70588235 0.58823529
v 0.61000000 0.83673762 -0.11326238 0.94117647 0.70588235 0.58823529
v 0.61000000 0.92326238 -0.11326238 0.94117647 0.70588235 0.58823529
v 0.56673762 0.95000000 0.04326238 0.94117647 0.70588235 0.58823529
v 0.56673762 0.81000000 0.04326238 0.94117647 0.70588235 0.58823529
v 0.61000000 0.83673762 0.11326238 0.94117647 0.70588235 0.58823529
v 0.61000000 0.92326238 0.11326238 0.94117647 0.70588235 0.58823529
v 0.54000000 0.88000000 0.00000000 0.94117647 0.70588235 0.58823529
v 0.64174269 1.01467137 0.00000000 0.94117647 0.70588235 0.58823529
v 0.71825731 1.01467137 0.00000000 0.94117647 0.70588235 0.58823529
v 0.64174269 0.74532863 0.00000000 0.94117647 0.70588235 0.58823529
v 0.71825731 0.74532863 0.00000000 0.94117647 0.70588235 0.58823529
v 0.61925560 0.75922641 0.03638487 0.94117647 0.70588235 0.58823529
v 0.65751292 0.78287073 0.09828650 0.94117647 0.70588235 0.58823529
v 0.65725562 0.74685209 0.03680118 0.94117647 0.70588235 0.58823529
v 0.74074440 0.75922641 0.03638487 0.94117647 0.70588235 0.58823529
v 0.70248708 0.78287073 0.09828650 0.94117647 0.70588235 0.58823529
v 0.70274438 0.74685209 0.03680118 0.94117647 0.70588235 0.58823529
v 0.68000000 0.76090889 0.07360236 0.94117647 0.70588235 0.58823529
v 0.61925560 1.00077359 0.03638487 0.94117647 0.70588235 0.58823529
v 0.65751292 0.97712927 0.09828650 0.94117647 0.70588235 0.58823529
v 0.65725562 1.01314791 0.03680118 0.94117647 0.70588235 0.58823529
v 0.74074440 1.00077359 0.03638487 0.94117647 0.70588235 0.58823529
v 0.70248708 0.97712927 0.09828650 0.94117647 0.70588235 0.58823529
v 0.70274438 1.01314791 0.03680118 0.94117647 0.70588235 0.58823529
v 0.68000000 0.99909111 0.07360236 0.94117647 0.70588235 0.58823529
v 0.68000000 0.84174269 0.13467137 0.94117647 0.70588235 0.58823529
v 0.68000000 0.91825731 0.13467137 0.94117647 0.70588235 0.58823529
v 0.61925560 0.75922641 -0.03638487 0.94117647 0.70588235 0.58823529
v 0.65751292 0.78287073 -0.09828650 0.94117647 0.70588235 0.58823529
v 0.65725562 0.74685209 -0.03680118 0.94117647 0.70588235 0.58823529
v 0.74074440 0.75922641 -0.03638487 0.94117647 0.70588235 0.58823529
v 0.70248708 0.78287073 -0.09828650 0.94117647 0.70588235 0.58823529
v 0.70274438 0.74685209 -0.03680118 0.94117647 0.70588235 0.58823529
v 0.68000000 0.76090889 -0.07360236 0.94117647 0.70588235 0.58823529
v 0.61925560 1.00077359 -0.03638487 0.94117647 0.70588235 0.58823529
v 0.65751292 0.97712927 -0.09828650 0.94117647 0.70588235 0.58823529
v 0.65725562 1.01314791 -0.03680118 0.94117647 0.70588235 0.58823529
v 0.74074440 1.00077359 -0.03638487 0.94117647 0.70588235 0.58823529
v 0.70248708 0.97712927 -0.09828650 0.94117647 0.70588235 0.58823529
v 0.70274438 1.01314791 -0.03680118 0.94117647 0.70588235 0.58823529
v 0.68000000 0.99909111 -0.07360236 0.94117647 0.70588235 0.58823529
v 0.68000000 0.84174269 -0.13467137 0.94117647 0.70588235 0.58823529
v 0.68000000 0.91825731 -0.13467137 0.94117647 0.70588235 0.58823529
v 0.77712927 0.97828650 -0.02248708 0.94117647 0.70588235 0.58823529
v 0.80077359 0.91638487 -0.06074440 0.94117647 0.70588235 0.58823529
v 0.76228994 0.97634673 -0.05954556 0.94117647 0.70588235 0.58823529
v 0.77712927 0.78171350 -0.02248708 0.94117647 0.70588235 0.58823529
v 0.80077359 0.84361513 -0.06074440 0.94117647 0.70588235 0.58823529
v 0.76228994 0.78365327 -0.05954556 0.94117647 0.70588235 0.58823529
v 0.71638487 0.81925560 -0.12077359 0.94117647 0.70588235 0.58823529
v 0.77828650 0.85751292 -0.09712927 0.94117647 0.70588235 0.58823529
v 0.73954556 0.79771006 -0.09634673 0.94117647 0.70588235 0.58823529
v 0.71680118 0.85725562 -0.13314791 0.94117647 0.70588235 0.58823529
v 0.77634673 0.82045444 -0.08228994 0.94117647 0.70588235 0.58823529
v 0.71638487 0.94074440 -0.12077359 0.94117647 0.70588235 0.58823529
v 0.77828650 0.90248708 -0.09712927 0.94117647 0.70588235 0.58823529
v 0.73954556 0.96228994 -0.09634673 0.94117647 0.70588235 0.58823529
v 0.71680118 0.90274438 -0.13314791 0.94117647 0.70588235 0.58823529
v 0.77634673 0.93954556 -0.08228994 0.94117647 0.70588235 0.58823529
v 0.75360236 0.88000000 -0.11909111 0.94117647 0.70588235 0.58823529
v 0.77712927 0.97828650 0.02248708 0.94117647 0.70588235 0.58823529
v 0.80077359 0.91638487 0.06074440 0.94117647 0.70588235 0.58823529
v 0.76228994 0.97634673 0.05954556 0.94117647 0.70588235 0.58823529
v 0.79909111 0.95360236 0.00000000 0.94117647 0.70588235 0.58823529
v 0.77712927 0.78171350 0.02248708 0.94117647 0.70588235 0.58823529
v 0.80077359 0.84361513 0.06074440 0.94117647 0.70588235 0.58823529
v 0.76228994 0.78365327 0.05954556 0.94117647 0.70588235 0.58823529
v 0.79909111 0.80639764 0.00000000 0.94117647 0.70588235 0.58823529
v 0.71638487 0.81925560 0.12077359 0.94117647 0.70588235 0.58823529
v 0.77828650 0.85751292 0.09712927 0.94117647 0.70588235 0.58823529
v 0.73954556 0.79771006 0.09634673 0.94117647 0.70588235 0.58823529
v 0.71680118 0.85725562 0.13314791 0.94117647 0.70588235 0.58823529
v 0.77634673 0.82045444 0.08228994 0.94117647 0.70588235 0.58823529
v 0.71638487 0.94074440 0.12077359 0.94117647 0.70588235 0.58823529
v 0.77828650 0.90248708 0.09712927 0.94117647 0.70588235 0.58823529
v 0.73954556 0.96228994 0.09634673 0.94117647 0.70588235 0.58823529
v 0.71680118 0.90274438 0.13314791 0.94117647 0.70588235 0.58823529
v 0.77634673 0.93954556 0.08228994 0.94117647 0.70588235 0.58823529
v 0.75360236 0.88000000 0.11909111 0.94117647 0.70588235 0.58823529
v 0.81467137 0.88000000 -0.03825731 0.94117647 0.70588235 0.58823529
v 0.81467137 0.88000000 0.03825731 0.94117647 0.70588235 0.58823529
v 0.81314791 0.91680118 -0.02274438 0.94117647 0.70588235 0.58823529
v 0.81314791 0.84319882 -0.02274438 0.94117647 0.70588235 0.58823529
v 0.81314791 0.91680118 0.02274438 0.94117647 0.70588235 0.58823529
v 0.81314791 0.84319882 0.02274438 0.94117647 0.70588235 0.58823529
v 0.58287073 0.97828650 -0.02248708 0.94117647 0.70588235 0.58823529
v 0.55922641 0.91638487 -0.06074440 0.94117647 0.70588235 0.58823529
v 0.59771006 0.97634673 -0.05954556 0.94117647 0.70588235 0.58823529
v 0.58287073 0.78171350 -0.02248708 0.94117647 0.70588235 0.58823529
v 0.55922641 0.84361513 -0.06074440 0.94117647 0.70588235 0.58823529
v 0.59771006 0.78365327 -0.05954556 0.94117647 0.70588235 0.58823529
v 0.64361513 0.81925560 -0.12077359 0.94117647 0.70588235 0.58823529
v 0.58171350 0.85751292 -0.09712927 0.94117647 0.70588235 0.58823529
v 0.62045444 0.79771006 -0.09634673 0.94117647 0.70588235 0.58823529
v 0.64319882 0.85725562 -0.13314791 0.94117647 0.70588235 0.58823529
v 0.58365327 0.82045444 -0.08228994 0.94117647 0.70588235 0.58823529
v 0.64361513 0.94074440 -0.12077359 0.94117647 0.70588235 0.58823529
v 0.58171350 0.90248708 -0.09712927 0.94117647 0.70588235 0.58823529
v 0.62045444 0.96228994 -0.09634673 0.94117647 0.70588235 0.58823529
v 0.64319882 0.90274438 -0.13314791 0.94117647 0.70588235 0.58823529
v 0.58365327 0.93954556 -0.08228994 0.94117647 0.70588235 0.58823529
v 0.60639764 0.88000000 -0.11909111 0.94117647 0.70588235 0.58823529
v 0.58287073 0.97828650 0.02248708 0.94117647 0.70588235 0.58823529
v 0.55922641 0.91638487 0.06074440 0.94117647 0.70588235 0.58823529
v 0.59771006 0.97634673 0.05954556 0.94117647 0.70588235 0.58823529
v 0.56090889 0.95360236 0.00000000 0.94117647 0.70588235 0.58823529
v 0.58287073 0.78171350 0.02248708 0.94117647 0.70588235 0.58823529
v 0.55922641 0.84361513 0.06074440 0.94117647 0.70588235 0.58823529
v 0.59771006 0.78365327 0.05954556 0.94117647 0.70588235 0.58823529
v 0.56090889 0.80639764 0.00000000 0.94117647 0.70588235 0.58823529
v 0.64361513 0.81925560 0.12077359 0.94117647 0.70588235 0.58823529
v 0.58171350 0.85751292 0.09712927 0.94117647 0.70588235 0.58823529
v 0.62045444 0.79771006 0.09634673 0.94117647 0.70588235 0.58823529
v 0.64319882 0.85725562 0.13314791 0.94117647 0.70588235 0.58823529
v 0.58365327 0.82045444 0.08228994 0.94117647 0.70588235 0.58823529
v 0.64361513 0.94074440 0.12077359 0.94117647 0.70588235 0.58823529
v 0.58171350 0.90248708 0.09712927 0.94117647 0.70588235 0.58823529
v 0.62045444 0.96228994 0.09634673 0.94117647 0.70588235 0.58823529
v 0.64319882 0.90274438 0.13314791 0.94117647 0.70588235 0.58823529
v 0.58365327 0.93954556 0.08228994 0.94117647 0.70588235 0.58823529
v 0.60639764 0.88000000 0.11909111 0.94117647 0.70588235 0.58823529
v 0.54532863 0.88000000 -0.03825731 0.94117647 0.70588235 0.58823529
v 0.54532863 0.88000000 0.03825731 0.94117647 0.70588235 0.58823529
v 0.54685209 0.91680118 -0.02274438 0.94117647 0.70588235 0.58823529
v 0.54685209 0.84319882 -0.02274438 0.94117647 0.70588235 0.58823529
v 0.54685209 0.91680118 0.02274438 0.94117647 0.70588235 0.58823529
v 0.54685209 0.84319882 0.02274438 0.94117647 0.70588235 0.58823529
f 235 372 288
f 372 272 374
f 288 374 251
f 372 374 288
f 272 373 389
f 373 246 386
f 389 386 275
f 373 386 389
f 251 387 289
f 387 275 385
f 289 385 240
f 387 385 289
f 272 389 374
f 389 275 387
f 374 387 251
f 389 387 374
f 235 288 277
f 288 251 290
f 277 290 247
f 288 290 277
f 251 289 294
f 289 240 292
f 294 292 252
f 289 292 294
f 247 293 278
f 293 252 291
f 278 291 236
f 293 291 278
f 251 294 290
f 294 252 293
f 290 293 247
f 294 293 290
f 235 277 304
f 277 247 306
f 304 306 256
f 277 306 304
f 247 278 309
f 278 236 307
f 309 307 257
f 278 307 309
f 256 310 305
f 310 257 308
f 305 308 242
f 310 308 305
f 247 309 306
f 309 257 310
f 306 310 256
f 309 310 306
f 235 304 355
f 304 256 357
f 355 357 268
f 304 357 355
f 256 305 368
f 305 242 366
f 368 366 271
f 305 366 368
f 268 370 356
f 370 271 367
f 356 367 245
f 370 367 356
f 256 368 357
f 368 271 370
f 357 370 268
f 368 370 357
f 235 355 372
f 355 268 375
f 372 375 272
f 355 375 372
f 268 356 393
f 356 245 391
f 393 391 276
f 356 391 393
f 272 395 373
f 395 276 392
f 373 392 246
f 395 392 373
f 268 393 375
f 393 276 395
f 375 395 272
f 393 395 375
f 236 291 330
f 291 252 332
f 330 332 263
f 291 332 330
f 252 292 345
f 292 240 343
f 345 343 266
f 292 343 345
f 263 347 331
f 347 266 344
f 331 344 244
f 347 344 331
f 252 345 332
f 345 266 347
f 332 347 263
f 345 347 332
f 240 385 296
f 385 275 388
f 296 388 253
f 385 388 296
f 275 386 390
f 386 246 381
f 390 381 274
f 386 381 390
f 253 383 295
f 383 274 380
f 295 380 239
f 383 380 295
f 275 390 388
f 390 274 383
f 388 383 253
f 390 383 388
f 246 392 377
f 392 276 396
f 377 396 273
f 392 396 377
f 276 391 394
f 391 245 359
f 394 359 269
f 391 359 394
f 273 379 376
f 379 269 358
f 376 358 237
f 379 358 376
f 276 394 396
f 394 269 379
f 396 379 273
f 394 379 396
f 245 367 362
f 367 271 371
f 362 371 270
f 367 371 362
f 271 366 369
f 366 242 312
f 369 312 258
f 366 312 369
f 270 364 361
f 364 258 311
f 361 311 241
f 364 311 361
f 271 369 371
f 369 258 364
f 371 364 270
f 369 364 371
f 242 308 324
f 308 257 326
f 324 326 262
f 308 326 324
f 257 307 315
f 307 236 313
f 315 313 259
f 307 313 315
f 262 328 325
f 328 259 314
f 325 314 243
f 328 314 325
f 257 315 326
f 315 259 328
f 326 328 262
f 315 328 326
f 238 334 284
f 334 264 336
f 284 336 250
f 334 336 284
f 264 335 342
f 335 244 339
f 342 339 265
f 335 339 342
f 250 340 285
f 340 265 338
f 285 338 239
f 340 338 285
f 264 342 336
f 342 265 340
f 336 340 250
f 342 340 336
f 238 284 280
f 284 250 286
f 280 286 248
f 284 286 280
f 250 285 287
f 285 239 282
f 287 282 249
f 285 282 287
f 248 283 279
f 283 249 281
f 279 281 237
f 283 281 279
f 250 287 286
f 287 249 283
f 286 283 248
f 287 283 286
f 238 280 300
f 280 248 302
f 300 302 255
f 280 302 300
f 248 279 299
f 279 237 297
f 299 297 254
f 279 297 299
f 255 303 301
f 303 254 298
f 301 298 241
f 303 298 301
f 248 299 302
f 299 254 303
f 302 303 255
f 299 303 302
f 238 300 316
f 300 255 318
f 316 318 260
f 300 318 316
f 255 301 321
f 301 241 319
f 321 319 261
f 301 319 321
f 260 323 317
f 323 261 320
f 317 320 243
f 323 320 317
f 255 321 318
f 321 261 323
f 318 323 260
f 321 323 318
f 238 316 334
f 316 260 337
f 334 337 264
f 316 337 334
f 260 317 352
f 317 243 349
f 352 349 267
f 317 349 352
f 264 354 335
f 354 267 350
f 335 350 244
f 354 350 335
f 260 352 337
f 352 267 354
f 337 354 264
f 352 354 337
f 239 338 295
f 338 265 341
f 295 341 253
f 338 341 295
f 265 339 348
f 339 244 344
f 348 344 266
f 339 344 348
f 253 346 296
f 346 266 343
f 296 343 240
f 346 343 296
f 265 348 341
f 348 266 346
f 341 346 253
f 348 346 341
f 237 281 376
f 281 249 378
f 376 378 273
f 281 378 376
f 249 282 382
f 282 239 380
f 382 380 274
f 282 380 382
f 273 384 377
f 384 274 381
f 377 381 246
f 384 381 377
f 249 382 378
f 382 274 384
f 378 384 273
f 382 384 378
f 241 298 361
f 298 254 363
f 361 363 270
f 298 363 361
f 254 297 360
f 297 237 358
f 360 358 269
f 297 358 360
f 270 365 362
f 365 269 359
f 362 359 245
f 365 359 362
f 254 360 363
f 360 269 365
f 363 365 270
f 360 365 363
f 243 320 325
f 320 261 329
f 325 329 262
f 320 329 325
f 261 319 322
f 319 241 311
f 322 311 258
f 319 311 322
f 262 327 324
f 327 258 312
f 324 312 242
f 327 312 324
f 261 322 329
f 322 258 327
f 329 327 262
f 322 327 329
f 244 350 331
f 350 267 353
f 331 353 263
f 350 353 331
f 267 349 351
f 349 243 314
f 351 314 259
f 349 314 351
f 263 333 330
f 333 259 313
f 330 313 236
f 333 313 330
f 267 351 353
f 351 259 333
f 353 333 263
f 351 333 353

o Neck
v -0.11000000 1.71000000 -0.11000000 0.94117647 0.70588235 0.58823529
v -0.11000000 1.71000000 0.11000000 0.94117647 0.70588235 0.58823529
v -0.11000000 1.93000000 -0.11000000 0.94117647 0.70588235 0.58823529
v -0.11000000 1.93000000 0.11000000 0.94117647 0.70588235 0.58823529
v 0.11000000 1.71000000 -0.11000000 0.94117647 0.70588235 0.58823529
v 0.11000000 1.71000000 0.11000000 0.94117647 0.70588235 0.58823529
v 0.11000000 1.93000000 -0.11000000 0.94117647 0.70588235 0.58823529
v 0.11000000 1.93000000 0.11000000 0.94117647 0.70588235 0.58823529
f 398 400 397
f 401 398 397
f 397 400 399
f 399 401 397
f 398 404 400
f 402 398 401
f 402 404 398
f 400 404 399
f 403 401 399
f 399 404 403
f 403 402 401
f 404 402 403

o Head
v -0.22606438 2.56577985 0.00000000 0.94117647 0.70588235 0.58823529
v 0.22606438 2.56577985 0.00000000 0.94117647 0.70588235 0.58823529
v -0.22606438 1.83422015 0.00000000 0.94117647 0.70588235 0.58823529
v 0.22606438 1.83422015 0.00000000 0.94117647 0.70588235 0.58823529
v 0.00000000 1.97393562 0.36577985 0.94117647 0.70588235 0.58823529
v 0.00000000 2.42606438 0.36577985 0.94117647 0.70588235 0.58823529
v 0.00000000 1.97393562 -0.36577985 0.94117647 0.70588235 0.58823529
v 0.00000000 2.42606438 -0.36577985 0.94117647 0.70588235 0.58823529
v 0.36577985 2.20000000 -0.22606438 0.94117647 0.70588235 0.58823529
v 0.36577985 2.20000000 0.22606438 0.94117647 0.70588235 0.58823529
v -0.36577985 2.20000000 -0.22606438 0.94117647 0.70588235 0.58823529
v -0.36577985 2.20000000 0.22606438 0.94117647 0.70588235 0.58823529
v 0.00000000 2.63000000 0.00000000 0.94117647 0.70588235 0.58823529
v 0.00000000 1.77000000 0.00000000 0.94117647 0.70588235 0.58823529
v -0.13287731 1.85212269 0.21500000 0.94117647 0.70588235 0.58823529
v 0.13287731 1.85212269 0.21500000 0.94117647 0.70588235 0.58823529
v -0.13287731 2.54787731 0.21500000 0.94117647 0.70588235 0.58823529
v 0.13287731 2.54787731 0.21500000 0.94117647 0.70588235 0.58823529
v 0.00000000 2.20000000 0.43000000 0.94117647 0.70588235 0.58823529
v -0.13287731 1.85212269 -0.21500000 0.94117647 0.70588235 0.58823529
v 0.13287731 1.85212269 -0.21500000 0.94117647 0.70588235 0.58823529
v -0.13287731 2.54787731 -0.21500000 0.94117647 0.70588235 0.58823529
v 0.13287731 2.54787731 -0.21500000 0.94117647 0.70588235 0.58823529
v 0.00000000 2.20000000 -0.43000000 0.94117647 0.70588235 0.58823529
v 0.34787731 2.41500000 -0.13287731 0.94117647 0.70588235 0.58823529
v 0.34787731 1.98500000 -0.13287731 0.94117647 0.70588235 0.58823529
v 0.21500000 2.06712269 -0.34787731 0.94117647 0.70588235 0.58823529
v 0.21500000 2.33287731 -0.34787731 0.94117647 0.70588235 0.58823529
v 0.34787731 2.41500000 0.13287731 0.94117647 0.70588235 0.58823529
v 0.34787731 1.98500000 0.13287731 0.94117647 0.70588235 0.58823529
v 0.21500000 2.06712269 0.34787731 0.94117647 0.70588235 0.58823529
v 0.21500000 2.33287731 0.34787731 0.94117647 0.70588235 0.58823529
v 0.43000000 2.20000000 0.00000000 0.94117647 0.70588235 0.58823529
v -0.34787731 2.41500000 -0.13287731 0.94117647 0.70588235 0.58823529
v -0.34787731 1.98500000 -0.13287731 0.94117647 0.70588235 0.58823529
v -0.21500000 2.06712269 -0.34787731 0.94117647 0.70588235 0.58823529
v -0.21500000 2.33287731 -0.34787731 0.94117647 0.70588235 0.58823529
v -0.34787731 2.41500000 0.13287731 0.94117647 0.70588235 0.58823529
v -0.34787731 1.98500000 0.13287731 0.94117647 0.70588235 0.58823529
v -0.21500000 2.06712269 0.34787731 0.94117647 0.70588235 0.58823529
v -0.21500000 2.33287731 0.34787731 0.94117647 0.70588235 0.58823529
v -0.43000000 2.20000000 0.00000000 0.94117647 0.70588235 0.58823529
v -0.11750461 2.61363349 0.00000000 0.94117647 0.70588235 0.58823529
v 0.11750461 2.61363349 0.00000000 0.94117647 0.70588235 0.58823529
v -0.11750461 1.78636651 0.00000000 0.94117647 0.70588235 0.58823529
v 0.11750461 1.78636651 0.00000000 0.94117647 0.70588235 0.58823529
v -0.18657208 1.82905255 0.11175352 0.94117647 0.70588235 0.58823529
v -0.06906748 1.90167439 0.30187997 0.94117647 0.70588235 0.58823529
v -0.06985773 1.79104570 0.11303219 0.94117647 0.70588235 0.58823529
v 0.18657208 1.82905255 0.11175352 0.94117647 0.70588235 0.58823529
v 0.06906748 1.90167439 0.30187997 0.94117647 0.70588235 0.58823529
v 0.06985773 1.79104570 0.11303219 0.94117647 0.70588235 0.58823529
v 0.00000000 1.83422015 0.22606438 0.94117647 0.70588235 0.58823529
v -0.18657208 2.57094745 0.11175352 0.94117647 0.70588235 0.58823529
v -0.06906748 2.49832561 0.30187997 0.94117647 0.70588235 0.58823529
v -0.06985773 2.60895430 0.11303219 0.94117647 0.70588235 0.58823529
v 0.18657208 2.57094745 0.11175352 0.94117647 0.70588235 0.58823529
v 0.06906748 2.49832561 0.30187997 0.94117647 0.70588235 0.58823529
v 0.06985773 2.60895430 0.11303219 0.94117647 0.70588235 0.58823529
v 0.00000000 2.56577985 0.22606438 0.94117647 0.70588235 0.58823529
v 0.00000000 2.08249539 0.41363349 0.94117647 0.70588235 0.58823529
v 0.00000000 2.31750461 0.41363349 0.94117647 0.70588235 0.58823529
v -0.18657208 1.82905255 -0.11175352 0.94117647 0.70588235 0.58823529
v -0.06906748 1.90167439 -0.30187997 0.94117647 0.70588235 0.58823529
v -0.06985773 1.79104570 -0.11303219 0.94117647 0.70588235 0.58823529
v 0.18657208 1.82905255 -0.11175352 0.94117647 0.70588235 0.58823529
v 0.06906748 1.90167439 -0.30187997 0.94117647 0.70588235 0.58823529
v 0.06985773 1.79104570 -0.11303219 0.94117647 0.70588235 0.58823529
v 0.00000000 1.83422015 -0.22606438 0.94117647 0.70588235 0.58823529
v -0.18657208 2.57094745 -0.11175352 0.94117647 0.70588235 0.58823529
v -0.06906748 2.49832561 -0.30187997 0.94117647 0.70588235 0.58823529
v -0.06985773 2.60895430 -0.11303219 0.94117647 0.70588235 0.58823529
v 0.18657208 2.57094745 -0.11175352 0.94117647 0.70588235 0.58823529
v 0.06906748 2.49832561 -0.30187997 0.94117647 0.70588235 0.58823529
v 0.06985773 2.60895430 -0.11303219 0.94117647 0.70588235 0.58823529
v 0.00000000 2.56577985 -0.22606438 0.94117647 0.70588235 0.58823529
v 0.00000000 2.08249539 -0.41363349 0.94117647 0.70588235 0.58823529
v 0.00000000 2.31750461 -0.41363349 0.94117647 0.70588235 0.58823529
v 0.29832561 2.50187997 -0.06906748 0.94117647 0.70588235 0.58823529
v 0.37094745 2.31175352 -0.18657208 0.94117647 0.70588235 0.58823529
v 0.25274766 2.49592211 -0.18288992 0.94117647 0.70588235 0.58823529
v 0.29832561 1.89812003 -0.06906748 0.94117647 0.70588235 0.58823529
v 0.37094745 2.08824648 -0.18657208 0.94117647 0.70588235 0.58823529
v 0.25274766 1.90407789 -0.18288992 0.94117647 0.70588235 0.58823529
v 0.11175352 2.01342792 -0.37094745 0.94117647 0.70588235 0.58823529
v 0.30187997 2.13093252 -0.29832561 0.94117647 0.70588235 0.58823529
v 0.18288992 1.94725234 -0.29592211 0.94117647 0.70588235 0.58823529
v 0.11303219 2.13014227 -0.40895430 0.94117647 0.70588235 0.58823529
v 0.29592211 2.01711008 -0.25274766 0.94117647 0.70588235 0.58823529
v 0.11175352 2.38657208 -0.37094745 0.94117647 0.70588235 0.58823529
v 0.30187997 2.26906748 -0.29832561 0.94117647 0.70588235 0.58823529
v 0.18288992 2.45274766 -0.29592211 0.94117647 0.70588235 0.58823529
v 0.11303219 2.26985773 -0.40895430 0.94117647 0.70588235 0.58823529
v 0.29592211 2.38288992 -0.25274766 0.94117647 0.70588235 0.58823529
v 0.22606438 2.20000000 -0.36577985 0.94117647 0.70588235 0.58823529
v 0.29832561 2.50187997 0.06906748 0.94117647 0.70588235 0.58823529
v 0.37094745 2.31175352 0.18657208 0.94117647 0.70588235 0.58823529
v 0.25274766 2.49592211 0.18288992 0.94117647 0.70588235 0.58823529
v 0.36577985 2.42606438 0.00000000 0.94117647 0.70588235 0.58823529
v 0.29832561 1.89812003 0.06906748 0.94117647 0.70588235 0.58823529
v 0.37094745 2.08824648 0.18657208 0.94117647 0.70588235 0.58823529
v 0.25274766 1.90407789 0.18288992 0.94117647 0.70588235 0.58823529
v 0.36577985 1.97393562 0.00000000 0.94117647 0.70588235 0.58823529
v 0.11175352 2.01342792 0.37094745 0.94117647 0.70588235 0.58823529
v 0.30187997 2.13093252 0.29832561 0.94117647 0.70588235 0.58823529
v 0.18288992 1.94725234 0.29592211 0.94117647 0.70588235 0.58823529
v 0.11303219 2.13014227 0.40895430 0.94117647 0.70588235 0.58823529
v 0.29592211 2.01711008 0.25274766 0.94117647 0.70588235 0.58823529
v 0.11175352 2.38657208 0.37094745 0.94117647 0.70588235 0.58823529
v 0.30187997 2.26906748 0.29832561 0.94117647 0.70588235 0.58823529
v 0.18288992 2.45274766 0.29592211 0.94117647 0.70588235 0.58823529
v 0.11303219 2.26985773 0.40895430 0.94117647 0.70588235 0.58823529
v 0.29592211 2.38288992 0.25274766 0.94117647 0.70588235 0.58823529
v 0.22606438 2.20000000 0.36577985 0.94117647 0.70588235 0.58823529
v 0.41363349 2.20000000 -0.11750461 0.94117647 0.70588235 0.58823529
v 0.41363349 2.20000000 0.11750461 0.94117647 0.70588235 0.58823529
v 0.40895430 2.31303219 -0.06985773 0.94117647 0.70588235 0.58823529
v 0.40895430 2.08696781 -0.06985773 0.94117647 0.70588235 0.58823529
v 0.40895430 2.31303219 0.06985773 0.94117647 0.70588235 0.58823529
v 0.40895430 2.08696781 0.06985773 0.94117647 0.70588235 0.58823529
v -0.29832561 2.50187997 -0.06906748 0.94117647 0.70588235 0.58823529
v -0.37094745 2.31175352 -0.18657208 0.94117647 0.70588235 0.58823529
v -0.25274766 2.49592211 -0.18288992 0.94117647 0.70588235 0.58823529
v -0.29832561 1.89812003 -0.06906748 0.94117647 0.70588235 0.58823529
v -0.37094745 2.08824648 -0.18657208 0.94117647 0.70588235 0.58823529
v -0.25274766 1.90407789 -0.18288992 0.94117647 0.70588235 0.58823529
v -0.11175352 2.01342792 -0.37094745 0.94117647 0.70588235 0.58823529
v -0.30187997 2.13093252 -0.29832561 0.94117647 0.70588235 0.58823529
v -0.18288992 1.94725234 -0.29592211 0.94117647 0.70588235 0.58823529
v -0.11303219 2.13014227 -0.40895430 0.94117647 0.70588235 0.58823529
v -0.29592211 2.01711008 -0.25274766 0.94117647 0.70588235 0.58823529
v -0.11175352 2.38657208 -0.37094745 0.94117647 0.70588235 0.58823529
v -0.30187997 2.26906748 -0.29832561 0.94117647 0.70588235 0.58823529
v -0.18288992 2.45274766 -0.29592211 0.94117647 0.70588235 0.58823529
v -0.11303219 2.26985773 -0.40895430 0.94117647 0.70588235 0.58823529
v -0.29592211 2.38288992 -0.25274766 0.94117647 0.70588235 0.58823529
v -0.22606438 2.20000000 -0.36577985 0.94117647 0.70588235 0.58823529
v -0.29832561 2.50187997 0.06906748 0.94117647 0.70588235 0.58823529
v -0.37094745 2.31175352 0.18657208 0.94117647 0.70588235 0.58823529
v -0.25274766 2.49592211 0.18288992 0.94117647 0.70588235 0.58823529
v -0.36577985 2.42606438 0.00000000 0.94117647 0.70588235 0.58823529
v -0.29832561 1.89812003 0.06906748 0.94117647 0.70588235 0.58823529
v -0.37094745 2.08824648 0.18657208 0.94117647 0.70588235 0.58823529
v -0.25274766 1.90407789 0.18288992 0.94117647 0.70588235 0.58823529
v -0.36577985 1.97393562 0.00000000 0.94117647 0.70588235 0.58823529
v -0.11175352 2.01342792 0.37094745 0.94117647 0.70588235 0.58823529
v -0.30187997 2.13093252 0.29832561 0.94117647 0.70588235 0.58823529
v -0.18288992 1.94725234 0.29592211 0.94117647 0.70588235 0.58823529
v -0.11303219 2.13014227 0.40895430 0.94117647 0.70588235 0.58823529
v -0.29592211 2.01711008 0.25274766 0.94117647 0.70588235 0.58823529
v -0.11175352 2.38657208 0.37094745 0.94117647 0.70588235 0.58823529
v -0.30187997 2.26906748 0.29832561 0.94117647 0.70588235 0.58823529
v -0.18288992 2.45274766 0.29592211 0.94117647 0.70588235 0.58823529
v -0.11303219 2.26985773 0.40895430 0.94117647 0.70588235 0.58823529
v -0.29592211 2.38288992 0.25274766 0.94117647 0.70588235 0.58823529
v -0.22606438 2.20000000 0.36577985 0.94117647 0.70588235 0.58823529
v -0.41363349 2.20000000 -0.11750461 0.94117647 0.70588235 0.58823529
v -0.41363349 2.20000000 0.11750461 0.94117647 0.70588235 0.58823529
v -0.40895430 2.31303219 -0.06985773 0.94117647 0.70588235 0.58823529
v -0.40895430 2.08696781 -0.06985773 0.94117647 0.70588235 0.58823529
v -0.40895430 2.31303219 0.06985773 0.94117647 0.70588235 0.58823529
v -0.40895430 2.08696781 0.06985773 0.94117647 0.70588235 0.58823529
f 405 542 458
f 542 442 544
f 458 544 421
f 542 544 458
f 442 543 559
f 543 416 556
f 559 556 445
f 543 556 559
f 421 557 459
f 557 445 555
f 459 555 410
f 557 555 459
f 442 559 544
f 559 445 557
f 544 557 421
f 559 557 544
f 405 458 447
f 458 421 460
f 447 460 417
f 458 460 447
f 421 459 464
f 459 410 462
f 464 462 422
f 459 462 464
f 417 463 448
f 463 422 461
f 448 461 406
f 463 461 448
f 421 464 460
f 464 422 463
f 460 463 417
f 464 463 460
f 405 447 474
f 447 417 476
f 474 476 426
f 447 476 474
f 417 448 479
f 448 406 477
f 479 477 427
f 448 477 479
f 426 480 475
f 480 427 478
f 475 478 412
f 480 478 475
f 417 479 476
f 479 427 480
f 476 480 426
f 479 480 476
f 405 474 525
f 474 426 527
f 525 527 438
f 474 527 525
f 426 475 538
f 475 412 536
f 538 536 441
f 475 536 538
f 438 540 526
f 540 441 537
f 526 537 415
f 540 537 526
f 426 538 527
f 538 441 540
f 527 540 438
f 538 540 527
f 405 525 542
f 525 438 545
f 542 545 442
f 525 545 542
f 438 526 563
f 526 415 561
f 563 561 446
f 526 561 563
f 442 565 543
f 565 446 562
f 543 562 416
f 565 562 543
f 438 563 545
f 563 446 565
f 545 565 442
f 563 565 545
f 406 461 500
f 461 422 502
f 500 502 433
f 461 502 500
f 422 462 515
f 462 410 513
f 515 513 436
f 462 513 515
f 433 517 501
f 517 436 514
f 501 514 414
f 517 514 501
f 422 515 502
f 515 436 517
f 502 517 433
f 515 517 502
f 410 555 466
f 555 445 558
f 466 558 423
f 555 558 466
f 445 556 560
f 556 416 551
f 560 551 444
f 556 551 560
f 423 553 465
f 553 444 550
f 465 550 409
f 553 550 465
f 445 560 558
f 560 444 553
f 558 553 423
f 560 553 558
f 416 562 547
f 562 446 566
f 547 566 443
f 562 566 547
f 446 561 564
f 561 415 529
f 564 529 439
f 561 529 564
f 443 549 546
f 549 439 528
f 546 528 407
f 549 528 546
f 446 564 566
f 564 439 549
f 566 549 443
f 564 549 566
f 415 537 532
f 537 441 541
f 532 541 440
f 537 541 532
f 441 536 539
f 536 412 482
f 539 482 428
f 536 482 539
f 440 534 531
f 534 428 481
f 531 481 411
f 534 481 531
f 441 539 541
f 539 428 534
f 541 534 440
f 539 534 541
f 412 478 494
f 478 427 496
f 494 496 432
f 478 496 494
f 427 477 485
f 477 406 483
f 485 483 429
f 477 483 485
f 432 498 495
f 498 429 484
f 495 484 413
f 498 484 495
f 427 485 496
f 485 429 498
f 496 498 432
f 485 498 496
f 408 504 454
f 504 434 506
f 454 506 420
f 504 506 454
f 434 505 512
f 505 414 509
f 512 509 435
f 505 509 512
f 420 510 455
f 510 435 508
f 455 508 409
f 510 508 455
f 434 512 506
f 512 435 510
f 506 510 420
f 512 510 506
f 408 454 450
f 454 420 456
f 450 456 418
f 454 456 450
f 420 455 457
f 455 409 452
f 457 452 419
f 455 452 457
f 418 453 449
f 453 419 451
f 449 451 407
f 453 451 449
f 420 457 456
f 457 419 453
f 456 453 418
f 457 453 456
f 408 450 470
f 450 418 472
f 470 472 425
f 450 472 470
f 418 449 469
f 449 407 467
f 469 467 424
f 449 467 469
f 425 473 471
f 473 424 468
f 471 468 411
f 473 468 471
f 418 469 472
f 469 424 473
f 472 473 425
f 469 473 472
f 408 470 486
f 470 425 488
f 486 488 430
f 470 488 486
f 425 471 491
f 471 411 489
f 491 489 431
f 471 489 491
f 430 493 487
f 493 431 490
f 487 490 413
f 493 490 487
f 425 491 488
f 491 431 493
f 488 493 430
f 491 493 488
f 408 486 504
f 486 430 507
f 504 507 434
f 486 507 504
f 430 487 522
f 487 413 519
f 522 519 437
f 487 519 522
f 434 524 505
f 524 437 520
f 505 520 414
f 524 520 505
f 430 522 507
f 522 437 524
f 507 524 434
f 522 524 507
f 409 508 465
f 508 435 511
f 465 511 423
f 508 511 465
f 435 509 518
f 509 414 514
f 518 514 436
f 509 514 518
f 423 516 466
f 516 436 513
f 466 513 410
f 516 513 466
f 435 518 511
f 518 436 516
f 511 516 423
f 518 516 511
f 407 451 546
f 451 419 548
f 546 548 443
f 451 548 546
f 419 452 552
f 452 409 550
f 552 550 444
f 452 550 552
f 443 554 547
f 554 444 551
f 547 551 416
f 554 551 547
f 419 552 548
f 552 444 554
f 548 554 443
f 552 554 548
f 411 468 531
f 468 424 533
f 531 533 440
f 468 533 531
f 424 467 530
f 467 407 528
f 530 528 439
f 467 528 530
f 440 535 532
f 535 439 529
f 532 529 415
f 535 529 532
f 424 530 533
f 530 439 535
f 533 535 440
f 530 535 533
f 413 490 495
f 490 431 499
f 495 499 432
f 490 499 495
f 431 489 492
f 489 411 481
f 492 481 428
f 489 481 492
f 432 497 494
f 497 428 482
f 494 482 412
f 497 482 494
f 431 492 499
f 492 428 497
f 499 497 432
f 492 497 499
f 414 520 501
f 520 437 523
f 501 523 433
f 520 523 501
f 437 519 521
f 519 413 484
f 521 484 429
f 519 484 521
f 433 503 500
f 503 429 483
f 500 483 406
f 503 483 500
f 437 521 523
f 521 429 503
f 523 503 433
f 521 503 523

o Hair
v -0.24183631 2.82129937 -0.03000000 0.86274510 0.39215686 0.72549020
v 0.24183631 2.82129937 -0.03000000 0.86274510 0.39215686 0.72549020
v -0.24183631 2.03870063 -0.03000000 0.86274510 0.39215686 0.72549020
v 0.24183631 2.03870063 -0.03000000 0.86274510 0.39215686 0.72549020
v 0.00000000 2.18816369 0.36129937 0.86274510 0.39215686 0.72549020
v 0.00000000 2.67183631 0.36129937 0.86274510 0.39215686 0.72549020
v 0.00000000 2.18816369 -0.42129937 0.86274510 0.39215686 0.72549020
v 0.00000000 2.67183631 -0.42129937 0.86274510 0.39215686 0.72549020
v 0.39129937 2.43000000 -0.27183631 0.86274510 0.39215686 0.72549020
v 0.39129937 2.43000000 0.21183631 0.86274510 0.39215686 0.72549020
v -0.39129937 2.43000000 -0.27183631 0.86274510 0.39215686 0.72549020
v -0.39129937 2.43000000 0.21183631 0.86274510 0.39215686 0.72549020
v 0.00000000 2.89000000 -0.03000000 0.86274510 0.39215686 0.72549020
v 0.00000000 1.97000000 -0.03000000 0.86274510 0.39215686 0.72549020
v -0.14214782 2.05785218 0.20000000 0.86274510 0.39215686 0.72549020
v 0.14214782 2.05785218 0.20000000 0.86274510 0.39215686 0.72549020
v -0.14214782 2.80214782 0.20000000 0.86274510 0.39215686 0.72549020
v 0.14214782 2.80214782 0.20000000 0.86274510 0.39215686 0.72549020
v 0.00000000 2.43000000 0.43000000 0.86274510 0.39215686 0.72549020
v -0.14214782 2.05785218 -0.26000000 0.86274510 0.39215686 0.72549020
v 0.14214782 2.05785218 -0.26000000 0.86274510 0.39215686 0.72549020
v -0.14214782 2.80214782 -0.26000000 0.86274510 0.39215686 0.72549020
v 0.14214782 2.80214782 -0.26000000 0.86274510 0.39215686 0.72549020
v 0.00000000 2.43000000 -0.49000000 0.86274510 0.39215686 0.72549020
v 0.37214782 2.66000000 -0.17214782 0.86274510 0.39215686 0.72549020
v 0.37214782 2.20000000 -0.17214782 0.86274510 0.39215686 0.72549020
v 0.23000000 2.28785218 -0.40214782 0.86274510 0.39215686 0.72549020
v 0.23000000 2.57214782 -0.40214782 0.86274510 0.39215686 0.72549020
v 0.37214782 2.66000000 0.11214782 0.86274510 0.39215686 0.72549020
v 0.37214782 2.20000000 0.11214782 0.86274510 0.39215686 0.72549020
v 0.23000000 2.28785218 0.34214782 0.86274510 0.39215686 0.72549020
v 0.23000000 2.57214782 0.34214782 0.86274510 0.39215686 0.72549020
v 0.46000000 2.43000000 -0.03000000 0.86274510 0.39215686 0.72549020
v -0.37214782 2.66000000 -0.17214782 0.86274510 0.39215686 0.72549020
v -0.37214782 2.20000000 -0.17214782 0.86274510 0.39215686 0.72549020
v -0.23000000 2.28785218 -0.40214782 0.86274510 0.39215686 0.72549020
v -0.23000000 2.57214782 -0.40214782 0.86274510 0.39215686 0.72549020
v -0.37214782 2.66000000 0.11214782 0.86274510 0.39215686 0.72549020
v -0.37214782 2.20000000 0.11214782 0.86274510 0.39215686 0.72549020
v -0.23000000 2.28785218 0.34214782 0.86274510 0.39215686 0.72549020
v -0.23000000 2.57214782 0.34214782 0.86274510 0.39215686 0.72549020
v -0.46000000 2.43000000 -0.03000000 0.86274510 0.39215686 0.72549020
v -0.12570260 2.87249164 -0.03000000 0.86274510 0.39215686 0.72549020
v 0.12570260 2.87249164 -0.03000000 0.86274510 0.39215686 0.72549020
v -0.12570260 1.98750836 -0.03000000 0.86274510 0.39215686 0.72549020
v 0.12570260 1.98750836 -0.03000000 0.86274510 0.39215686 0.72549020
v -0.19958874 2.03317250 0.08955028 0.86274510 0.39215686 0.72549020
v -0.07388614 2.11086098 0.29294136 0.86274510 0.39215686 0.72549020
v -0.07473153 1.99251400 0.09091816 0.86274510 0.39215686 0.72549020
v 0.19958874 2.03317250 0.08955028 0.86274510 0.39215686 0.72549020
v 0.07388614 2.11086098 0.29294136 0.86274510 0.39215686 0.72549020
v 0.07473153 1.99251400 0.09091816 0.86274510 0.39215686 0.72549020
v 0.00000000 2.03870063 0.21183631 0.86274510 0.39215686 0.72549020
v -0.19958874 2.82682750 0.08955028 0.86274510 0.39215686 0.72549020
v -0.07388614 2.74913902 0.29294136 0.86274510 0.39215686 0.72549020
v -0.07473153 2.86748600 0.09091816 0.86274510 0.39215686 0.72549020
v 0.19958874 2.82682750 0.08955028 0.86274510 0.39215686 0.72549020
v 0.07388614 2.74913902 0.29294136 0.86274510 0.39215686 0.72549020
v 0.07473153 2.86748600 0.09091816 0.86274510 0.39215686 0.72549020
v 0.00000000 2.82129937 0.21183631 0.86274510 0.39215686 0.72549020
v 0.00000000 2.30429740 0.41249164 0.86274510 0.39215686 0.72549020
v 0.00000000 2.55570260 0.41249164 0.86274510 0.39215686 0.72549020
v -0.19958874 2.03317250 -0.14955028 0.86274510 0.39215686 0.72549020
v -0.07388614 2.11086098 -0.35294136 0.86274510 0.39215686 0.72549020
v -0.07473153 1.99251400 -0.15091816 0.86274510 0.39215686 0.72549020
v 0.19958874 2.03317250 -0.14955028 0.86274510 0.39215686 0.72549020
v 0.07388614 2.11086098 -0.35294136 0.86274510 0.39215686 0.72549020
v 0.07473153 1.99251400 -0.15091816 0.86274510 0.39215686 0.72549020
v 0.00000000 2.03870063 -0.27183631 0.86274510 0.39215686 0.72549020
v -0.19958874 2.82682750 -0.14955028 0.86274510 0.39215686 0.72549020
v -0.07388614 2.74913902 -0.35294136 0.86274510 0.39215686 0.72549020
v -0.07473153 2.86748600 -0.15091816 0.86274510 0.39215686 0.72549020
v 0.19958874 2.82682750 -0.14955028 0.86274510 0.39215686 0.72549020
v 0.07388614 2.74913902 -0.35294136 0.86274510 0.39215686 0.72549020
v 0.07473153 2.86748600 -0.15091816 0.86274510 0.39215686 0.72549020
v 0.00000000 2.82129937 -0.27183631 0.86274510 0.39215686 0.72549020
v 0.00000000 2.30429740 -0.47249164 0.86274510 0.39215686 0.72549020
v 0.00000000 2.55570260 -0.47249164 0.86274510 0.39215686 0.72549020
v 0.31913902 2.75294136 -0.10388614 0.86274510 0.39215686 0.72549020
v 0.39682750 2.54955028 -0.22958874 0.86274510 0.39215686 0.72549020
v 0.27038122 2.74656784 -0.22564969 0.86274510 0.39215686 0.72549020
v 0.31913902 2.10705864 -0.10388614 0.86274510 0.39215686 0.72549020
v 0.39682750 2.31044972 -0.22958874 0.86274510 0.39215686 0.72549020
v 0.27038122 2.11343216 -0.22564969 0.86274510 0.39215686 0.72549020
v 0.11955028 2.23041126 -0.42682750 0.86274510 0.39215686 0.72549020
v 0.32294136 2.35611386 -0.34913902 0.86274510 0.39215686 0.72549020
v 0.19564969 2.15961878 -0.34656784 0.86274510 0.39215686 0.72549020
v 0.12091816 2.35526847 -0.46748600 0.86274510 0.39215686 0.72549020
v 0.31656784 2.23435031 -0.30038122 0.86274510 0.39215686 0.72549020
v 0.11955028 2.62958874 -0.42682750 0.86274510 0.39215686 0.72549020
v 0.32294136 2.50388614 -0.34913902 0.86274510 0.39215686 0.72549020
v 0.19564969 2.70038122 -0.34656784 0.86274510 0.39215686 0.72549020
v 0.12091816 2.50473153 -0.46748600 0.86274510 0.39215686 0.72549020
v 0.31656784 2.62564969 -0.30038122 0.86274510 0.39215686 0.72549020
v 0.24183631 2.43000000 -0.42129937 0.86274510 0.39215686 0.72549020
v 0.31913902 2.75294136 0.04388614 0.86274510 0.39215686 0.72549020
v 0.39682750 2.54955028 0.16958874 0.86274510 0.39215686 0.72549020
v 0.27038122 2.74656784 0.16564969 0.86274510 0.39215686 0.72549020
v 0.39129937 2.67183631 -0.03000000 0.86274510 0.39215686 0.72549020
v 0.31913902 2.10705864 0.04388614 0.86274510 0.39215686 0.72549020
v 0.39682750 2.31044972 0.16958874 0.86274510 0.39215686 0.72549020
v 0.27038122 2.11343216 0.16564969 0.86274510 0.39215686 0.72549020
v 0.39129937 2.18816369 -0.03000000 0.86274510 0.39215686 0.72549020
v 0.11955028 2.23041126 0.36682750 0.86274510 0.39215686 0.72549020
v 0.32294136 2.35611386 0.28913902 0.86274510 0.39215686 0.72549020
v 0.19564969 2.15961878 0.28656784 0.86274510 0.39215686 0.72549020
v 0.12091816 2.35526847 0.40748600 0.86274510 0.39215686 0.72549020
v 0.31656784 2.23435031 0.24038122 0.86274510 0.39215686 0.72549020
v 0.11955028 2.62958874 0.36682750 0.86274510 0.39215686 0.72549020
v 0.32294136 2.50388614 0.28913902 0.86274510 0.39215686 0.72549020
v 0.19564969 2.70038122 0.28656784 0.86274510 0.39215686 0.72549020
v 0.12091816 2.50473153 0.40748600 0.86274510 0.39215686 0.72549020
v 0.31656784 2.62564969 0.24038122 0.86274510 0.39215686 0.72549020
v 0.24183631 2.43000000 0.36129937 0.86274510 0.39215686 0.72549020
v 0.44249164 2.43000000 -0.15570260 0.86274510 0.39215686 0.72549020
v 0.44249164 2.43000000 0.09570260 0.86274510 0.39215686 0.72549020
v 0.43748600 2.55091816 -0.10473153 0.86274510 0.39215686 0.72549020
v 0.43748600 2.30908184 -0.10473153 0.86274510 0.39215686 0.72549020
v 0.43748600 2.55091816 0.04473153 0.86274510 0.39215686 0.72549020
v 0.43748600 2.30908184 0.04473153 0.86274510 0.39215686 0.72549020
v -0.31913902 2.75294136 -0.10388614 0.86274510 0.39215686 0.72549020
v -0.39682750 2.54955028 -0.22958874 0.86274510 0.39215686 0.72549020
v -0.27038122 2.74656784 -0.22564969 0.86274510 0.39215686 0.72549020
v -0.31913902 2.10705864 -0.10388614 0.86274510 0.39215686 0.72549020
v -0.39682750 2.31044972 -0.22958874 0.86274510 0.39215686 0.72549020
v -0.27038122 2.11343216 -0.22564969 0.86274510 0.39215686 0.72549020
v -0.11955028 2.23041126 -0.42682750 0.86274510 0.39215686 0.72549020
v -0.32294136 2.35611386 -0.34913902 0.86274510 0.39215686 0.72549020
v -0.19564969 2.15961878 -0.34656784 0.86274510 0.39215686 0.72549020
v -0.12091816 2.35526847 -0.46748600 0.86274510 0.39215686 0.72549020
v -0.31656784 2.23435031 -0.30038122 0.86274510 0.39215686 0.72549020
v -0.11955028 2.62958874 -0.42682750 0.86274510 0.39215686 0.72549020
v -0.32294136 2.50388614 -0.34913902 0.86274510 0.39215686 0.72549020
v -0.19564969 2.70038122 -0.34656784 0.86274510 0.39215686 0.72549020
v -0.12091816 2.50473153 -0.46748600 0.86274510 0.39215686 0.72549020
v -0.31656784 2.62564969 -0.30038122 0.86274510 0.39215686 0.72549020
v -0.24183631 2.43000000 -0.42129937 0.86274510 0.39215686 0.72549020
v -0.31913902 2.75294136 0.04388614 0.86274510 0.39215686 0.72549020
v -0.39682750 2.54955028 0.16958874 0.86274510 0.39215686 0.72549020
v -0.27038122 2.74656784 0.16564969 0.86274510 0.39215686 0.72549020
v -0.39129937 2.67183631 -0.03000000 0.86274510 0.39215686 0.72549020
v -0.31913902 2.10705864 0.04388614 0.86274510 0.39215686 0.72549020
v -0.39682750 2.31044972 0.16958874 0.86274510 0.39215686 0.72549020
v -0.27038122 2.11343216 0.16564969 0.86274510 0.39215686 0.72549020
v -0.39129937 2.18816369 -0.03000000 0.86274510 0.39215686 0.72549020
v -0.11955028 2.23041126 0.36682750 0.86274510 0.39215686 0.72549020
v -0.32294136 2.35611386 0.28913902 0.86274510 0.39215686 0.72549020
v -0.19564969 2.15961878 0.28656784 0.86274510 0.39215686 0.72549020
v -0.12091816 2.35526847 0.40748600 0.86274510 0.39215686 0.72549020
v -0.31656784 2.23435031 0.24038122 0.86274510 0.39215686 0.72549020
v -0.11955028 2.62958874 0.36682750 0.86274510 0.39215686 0.72549020
v -0.32294136 2.50388614 0.28913902 0.86274510 0.39215686 0.72549020
v -0.19564969 2.70038122 0.28656784 0.86274510 0.39215686 0.72549020
v -0.12091816 2.50473153 0.40748600 0.86274510 0.39215686 0.72549020
v -0.31656784 2.62564969 0.24038122 0.86274510 0.39215686 0.72549020
v -0.24183631 2.43000000 0.36129937 0.86274510 0.39215686 0.72549020
v -0.44249164 2.43000000 -0.15570260 0.86274510 0.39215686 0.72549020
v -0.44249164 2.43000000 0.09570260 0.86274510 0.39215686 0.72549020
v -0.43748600 2.55091816 -0.10473153 0.86274510 0.39215686 0.72549020
v -0.43748600 2.30908184 -0.10473153 0.86274510 0.39215686 0.72549020
v -0.43748600 2.55091816 0.04473153 0.86274510 0.39215686 0.72549020
v -0.43748600 2.30908184 0.04473153 0.86274510 0.39215686 0.72549020
f 567 704 620
f 704 604 706
f 620 706 583
f 704 706 620
f 604 705 721
f 705 578 718
f 721 718 607
f 705 718 721
f 583 719 621
f 719 607 717
f 621 717 572
f 719 717 621
f 604 721 706
f 721 607 719
f 706 719 583
f 721 719 706
f 567 620 609
f 620 583 622
f 609 622 579
f 620 622 609
f 583 621 626
f 621 572 624
f 626 624 584
f 621 624 626
f 579 625 610
f 625 584 623
f 610 623 568
f 625 623 610
f 583 626 622
f 626 584 625
f 622 625 579
f 626 625 622
f 567 609 636
f 609 579 638
f 636 638 588
f 609 638 636
f 579 610 641
f 610 568 639
f 641 639 589
f 610 639 641
f 588 642 637
f 642 589 640
f 637 640 574
f 642 640 637
f 579 641 638
f 641 589 642
f 638 642 588
f 641 642 638
f 567 636 687
f 636 588 689
f 687 689 600
f 636 689 687
f 588 637 700
f 637 574 698
f 700 698 603
f 637 698 700
f 600 702 688
f 702 603 699
f 688 699 577
f 702 699 688
f 588 700 689
f 700 603 702
f 689 702 600
f 700 702 689
f 567 687 704
f 687 600 707
f 704 707 604
f 687 707 704
f 600 688 725
f 688 577 723
f 725 723 608
f 688 723 725
f 604 727 705
f 727 608 724
f 705 724 578
f 727 724 705
f 600 725 707
f 725 608 727
f 707 727 604
f 725 727 707
f 568 623 662
f 623 584 664
f 662 664 595
f 623 664 662
f 584 624 677
f 624 572 675
f 677 675 598
f 624 675 677
f 595 679 663
f 679 598 676
f 663 676 576
f 679 676 663
f 584 677 664
f 677 598 679
f 664 679 595
f 677 679 664
f 572 717 628
f 717 607 720
f 628 720 585
f 717 720 628
f 607 718 722
f 718 578 713
f 722 713 606
f 718 713 722
f 585 715 627
f 715 606 712
f 627 712 571
f 715 712 627
f 607 722 720
f 722 606 715
f 720 715 585
f 722 715 720
f 578 724 709
f 724 608 728
f 709 728 605
f 724 728 709
f 608 723 726
f 723 577 691
f 726 691 601
f 723 691 726
f 605 711 708
f 711 601 690
f 708 690 569
f 711 690 708
f 608 726 728
f 726 601 711
f 728 711 605
f 726 711 728
f 577 699 694
f 699 603 703
f 694 703 602
f 699 703 694
f 603 698 701
f 698 574 644
f 701 644 590
f 698 644 701
f 602 696 693
f 696 590 643
f 693 643 573
f 696 643 693
f 603 701 703
f 701 590 696
f 703 696 602
f 701 696 703
f 574 640 656
f 640 589 658
f 656 658 594
f 640 658 656
f 589 639 647
f 639 568 645
f 647 645 591
f 639 645 647
f 594 660 657
f 660 591 646
f 657 646 575
f 660 646 657
f 589 647 658
f 647 591 660
f 658 660 594
f 647 660 658
f 570 666 616
f 666 596 668
f 616 668 582
f 666 668 616
f 596 667 674
f 667 576 671
f 674 671 597
f 667 671 674
f 582 672 617
f 672 597 670
f 617 670 571
f 672 670 617
f 596 674 668
f 674 597 672
f 668 672 582
f 674 672 668
f 570 616 612
f 616 582 618
f 612 618 580
f 616 618 612
f 582 617 619
f 617 571 614
f 619 614 581
f 617 614 619
f 580 615 611
f 615 581 613
f 611 613 569
f 615 613 611
f 582 619 618
f 619 581 615
f 618 615 580
f 619 615 618
f 570 612 632
f 612 580 634
f 632 634 587
f 612 634 632
f 580 611 631
f 611 569 629
f 631 629 586
f 611 629 631
f 587 635 633
f 635 586 630
f 633 630 573
f 635 630 633
f 580 631 634
f 631 586 635
f 634 635 587
f 631 635 634
f 570 632 648
f 632 587 650
f 648 650 592
f 632 650 648
f 587 633 653
f 633 573 651
f 653 651 593
f 633 651 653
f 592 655 649
f 655 593 652
f 649 652 575
f 655 652 649
f 587 653 650
f 653 593 655
f 650 655 592
f 653 655 650
f 570 648 666
f 648 592 669
f 666 669 596
f 648 669 666
f 592 649 684
f 649 575 681
f 684 681 599
f 649 681 684
f 596 686 667
f 686 599 682
f 667 682 576
f 686 682 667
f 592 684 669
f 684 599 686
f 669 686 596
f 684 686 669
f 571 670 627
f 670 597 673
f 627 673 585
f 670 673 627
f 597 671 680
f 671 576 676
f 680 676 598
f 671 676 680
f 585 678 628
f 678 598 675
f 628 675 572
f 678 675 628
f 597 680 673
f 680 598 678
f 673 678 585
f 680 678 673
f 569 613 708
f 613 581 710
f 708 710 605
f 613 710 708
f 581 614 714
f 614 571 712
f 714 712 606
f 614 712 714
f 605 716 709
f 716 606 713
f 709 713 578
f 716 713 709
f 581 714 710
f 714 606 716
f 710 716 605
f 714 716 710
f 573 630 693
f 630 586 695
f 693 695 602
f 630 695 693
f 586 629 692
f 629 569 690
f 692 690 601
f 629 690 692
f 602 697 694
f 697 601 691
f 694 691 577
f 697 691 694
f 586 692 695
f 692 601 697
f 695 697 602
f 692 697 695
f 575 652 657
f 652 593 661
f 657 661 594
f 652 661 657
f 593 651 654
f 651 573 643
f 654 643 590
f 651 643 654
f 594 659 656
f 659 590 644
f 656 644 574
f 659 644 656
f 593 654 661
f 654 590 659
f 661 659 594
f 654 659 661
f 576 682 663
f 682 599 685
f 663 685 595
f 682 685 663
f 599 681 683
f 681 575 646
f 683 646 591
f 681 646 683
f 595 665 662
f 665 591 645
f 662 645 568
f 665 645 662
f 599 683 685
f 683 591 665
f 685 665 595
f 683 665 685

o Pendant
v -0.03680118 1.43954556 0.25000000 1.00000000 0.41176471 0.74509804
v 0.03680118 1.43954556 0.25000000 1.00000000 0.41176471 0.74509804
v -0.03680118 1.32045444 0.25000000 1.00000000 0.41176471 0.74509804
v 0.03680118 1.32045444 0.25000000 1.00000000 0.41176471 0.74509804
v 0.00000000 1.34319882 0.30954556 1.00000000 0.41176471 0.74509804
v 0.00000000 1.41680118 0.30954556 1.00000000 0.41176471 0.74509804
v 0.00000000 1.34319882 0.19045444 1.00000000 0.41176471 0.74509804
v 0.00000000 1.41680118 0.19045444 1.00000000 0.41176471 0.74509804
v 0.05954556 1.38000000 0.21319882 1.00000000 0.41176471 0.74509804
v 0.05954556 1.38000000 0.28680118 1.00000000 0.41176471 0.74509804
v -0.05954556 1.38000000 0.21319882 1.00000000 0.41176471 0.74509804
v -0.05954556 1.38000000 0.28680118 1.00000000 0.41176471 0.74509804
v 0.00000000 1.45000000 0.25000000 1.00000000 0.41176471 0.74509804
v 0.00000000 1.31000000 0.25000000 1.00000000 0.41176471 0.74509804
v -0.02163119 1.32336881 0.28500000 1.00000000 0.41176471 0.74509804
v 0.02163119 1.32336881 0.28500000 1.00000000 0.41176471 0.74509804
v -0.02163119 1.43663119 0.28500000 1.00000000 0.41176471 0.74509804
v 0.02163119 1.43663119 0.28500000 1.00000000 0.41176471 0.74509804
v 0.00000000 1.38000000 0.32000000 1.00000000 0.41176471 0.74509804
v -0.02163119 1.32336881 0.21500000 1.00000000 0.41176471 0.74509804
v 0.02163119 1.32336881 0.21500000 1.00000000 0.41176471 0.74509804
v -0.02163119 1.43663119 0.21500000 1.00000000 0.41176471 0.74509804
v 0.02163119 1.43663119 0.21500000 1.00000000 0.41176471 0.74509804
v 0.00000000 1.38000000 0.18000000 1.00000000 0.41176471 0.74509804
v 0.05663119 1.41500000 0.22836881 1.00000000 0.41176471 0.74509804
v 0.05663119 1.34500000 0.22836881 1.00000000 0.41176471 0.74509804
v 0.03500000 1.35836881 0.19336881 1.00000000 0.41176471 0.74509804
v 0.03500000 1.40163119 0.19336881 1.00000000 0.41176471 0.74509804
v 0.05663119 1.41500000 0.27163119 1.00000000 0.41176471 0.74509804
v 0.05663119 1.34500000 0.27163119 1.00000000 0.41176471 0.74509804
v 0.03500000 1.35836881 0.30663119 1.00000000 0.41176471 0.74509804
v 0.03500000 1.40163119 0.30663119 1.00000000 0.41176471 0.74509804
v 0.07000000 1.38000000 0.25000000 1.00000000 0.41176471 0.74509804
v -0.05663119 1.41500000 0.22836881 1.00000000 0.41176471 0.74509804
v -0.05663119 1.34500000 0.22836881 1.00000000 0.41176471 0.74509804
v -0.03500000 1.35836881 0.19336881 1.00000000 0.41176471 0.74509804
v -0.03500000 1.40163119 0.19336881 1.00000000 0.41176471 0.74509804
v -0.05663119 1.41500000 0.27163119 1.00000000 0.41176471 0.74509804
v -0.05663119 1.34500000 0.27163119 1.00000000 0.41176471 0.74509804
v -0.03500000 1.35836881 0.30663119 1.00000000 0.41176471 0.74509804
v -0.03500000 1.40163119 0.30663119 1.00000000 0.41176471 0.74509804
v -0.07000000 1.38000000 0.25000000 1.00000000 0.41176471 0.74509804
v -0.01912866 1.44733569 0.25000000 1.00000000 0.41176471 0.74509804
v 0.01912866 1.44733569 0.25000000 1.00000000 0.41176471 0.74509804
v -0.01912866 1.31266431 0.25000000 1.00000000 0.41176471 0.74509804
v 0.01912866 1.31266431 0.25000000 1.00000000 0.41176471 0.74509804
v -0.03037220 1.31961321 0.26819243 1.00000000 0.41176471 0.74509804
v -0.01124354 1.33143537 0.29914325 1.00000000 0.41176471 0.74509804
v -0.01137219 1.31342604 0.26840059 1.00000000 0.41176471 0.74509804
v 0.03037220 1.31961321 0.26819243 1.00000000 0.41176471 0.74509804
v 0.01124354 1.33143537 0.29914325 1.00000000 0.41176471 0.74509804
v 0.01137219 1.31342604 0.26840059 1.00000000 0.41176471 0.74509804
v 0.00000000 1.32045444 0.28680118 1.00000000 0.41176471 0.74509804
v -0.03037220 1.44038679 0.26819243 1.00000000 0.41176471 0.74509804
v -0.01124354 1.42856463 0.29914325 1.00000000 0.41176471 0.74509804
v -0.01137219 1.44657396 0.26840059 1.00000000 0.41176471 0.74509804
v 0.03037220 1.44038679 0.26819243 1.00000000 0.41176471 0.74509804
v 0.01124354 1.42856463 0.29914325 1.00000000 0.41176471 0.74509804
v 0.01137219 1.44657396 0.26840059 1.00000000 0.41176471 0.74509804
v 0.00000000 1.43954556 0.28680118 1.00000000 0.41176471 0.74509804
v 0.00000000 1.36087134 0.31733569 1.00000000 0.41176471 0.74509804
v 0.00000000 1.39912866 0.31733569 1.00000000 0.41176471 0.74509804
v -0.03037220 1.31961321 0.23180757 1.00000000 0.41176471 0.74509804
v -0.01124354 1.33143537 0.20085675 1.00000000 0.41176471 0.74509804
v -0.01137219 1.31342604 0.23159941 1.00000000 0.41176471 0.74509804
v 0.03037220 1.31961321 0.23180757 1.00000000 0.41176471 0.74509804
v 0.01124354 1.33143537 0.20085675 1.00000000 0.41176471 0.74509804
v 0.01137219 1.31342604 0.23159941 1.00000000 0.41176471 0.74509804
v 0.00000000 1.32045444 0.21319882 1.00000000 0.41176471 0.74509804
v -0.03037220 1.44038679 0.23180757 1.00000000 0.41176471 0.74509804
v -0.01124354 1.42856463 0.20085675 1.00000000 0.41176471 0.74509804
v -0.01137219 1.44657396 0.23159941 1.00000000 0.41176471 0.74509804
v 0.03037220 1.44038679 0.23180757 1.00000000 0.41176471 0.74509804
v 0.01124354 1.42856463 0.20085675 1.00000000 0.41176471 0.74509804
v 0.01137219 1.44657396 0.23159941 1.00000000 0.41176471 0.74509804
v 0.00000000 1.43954556 0.21319882 1.00000000 0.41176471 0.74509804
v 0.00000000 1.36087134 0.18266431 1.00000000 0.41176471 0.74509804
v 0.00000000 1.39912866 0.18266431 1.00000000 0.41176471 0.74509804
v 0.04856463 1.42914325 0.23875646 1.00000000 0.41176471 0.74509804
v 0.06038679 1.39819243 0.21962780 1.00000000 0.41176471 0.74509804
v 0.04114497 1.42817337 0.22022722 1.00000000 0.41176471 0.74509804
v 0.04856463 1.33085675 0.23875646 1.00000000 0.41176471 0.74509804
v 0.06038679 1.36180757 0.21962780 1.00000000 0.41176471 0.74509804
v 0.04114497 1.33182663 0.22022722 1.00000000 0.41176471 0.74509804
v 0.01819243 1.34962780 0.18961321 1.00000000 0.41176471 0.74509804
v 0.04914325 1.36875646 0.20143537 1.00000000 0.41176471 0.74509804
v 0.02977278 1.33885503 0.20182663 1.00000000 0.41176471 0.74509804
v 0.01840059 1.36862781 0.18342604 1.00000000 0.41176471 0.74509804
v 0.04817337 1.35022722 0.20885503 1.00000000 0.41176471 0.74509804
v 0.01819243 1.41037220 0.18961321 1.00000000 0.41176471 0.74509804
v 0.04914325 1.39124354 0.20143537 1.00000000 0.41176471 0.74509804
v 0.02977278 1.42114497 0.20182663 1.00000000 0.41176471 0.74509804
v 0.01840059 1.39137219 0.18342604 1.00000000 0.41176471 0.74509804
v 0.04817337 1.40977278 0.20885503 1.00000000 0.41176471 0.74509804
v 0.03680118 1.38000000 0.19045444 1.00000000 0.41176471 0.74509804
v 0.04856463 1.42914325 0.26124354 1.00000000 0.41176471 0.74509804
v 0.06038679 1.39819243 0.28037220 1.00000000 0.41176471 0.74509804
v 0.04114497 1.42817337 0.27977278 1.00000000 0.41176471 0.74509804
v 0.05954556 1.41680118 0.25000000 1.00000000 0.41176471 0.74509804
v 0.04856463 1.33085675 0.26124354 1.00000000 0.41176471 0.74509804
v 0.06038679 1.36180757 0.28037220 1.00000000 0.41176471 0.74509804
v 0.04114497 1.33182663 0.27977278 1.00000000 0.41176471 0.74509804
v 0.05954556 1.34319882 0.25000000 1.00000000 0.41176471 0.74509804
v 0.01819243 1.34962780 0.31038679 1.00000000 0.41176471 0.74509804
v 0.04914325 1.36875646 0.29856463 1.00000000 0.41176471 0.74509804
v 0.02977278 1.33885503 0.29817337 1.00000000 0.41176471 0.74509804
v 0.01840059 1.36862781 0.31657396 1.00000000 0.41176471 0.74509804
v 0.04817337 1.35022722 0.29114497 1.00000000 0.41176471 0.74509804
v 0.01819243 1.41037220 0.31038679 1.00000000 0.41176471 0.74509804
v 0.04914325 1.39124354 0.29856463 1.00000000 0.41176471 0.74509804
v 0.02977278 1.42114497 0.29817337 1.00000000 0.41176471 0.74509804
v 0.01840059 1.39137219 0.31657396 1.00000000 0.41176471 0.74509804
v 0.04817337 1.40977278 0.29114497 1.00000000 0.41176471 0.74509804
v 0.03680118 1.38000000 0.30954556 1.00000000 0.41176471 0.74509804
v 0.06733569 1.38000000 0.23087134 1.00000000 0.41176471 0.74509804
v 0.06733569 1.38000000 0.26912866 1.00000000 0.41176471 0.74509804
v 0.06657396 1.39840059 0.23862781 1.00000000 0.41176471 0.74509804
v 0.06657396 1.36159941 0.23862781 1.00000000 0.41176471 0.74509804
v 0.06657396 1.39840059 0.26137219 1.00000000 0.41176471 0.74509804
v 0.06657396 1.36159941 0.26137219 1.00000000 0.41176471 0.74509804
v -0.04856463 1.42914325 0.23875646 1.00000000 0.41176471 0.74509804
v -0.06038679 1.39819243 0.21962780 1.00000000 0.41176471 0.74509804
v -0.04114497 1.42817337 0.22022722 1.00000000 0.41176471 0.74509804
v -0.04856463 1.33085675 0.23875646 1.00000000 0.41176471 0.74509804
v -0.06038679 1.36180757 0.21962780 1.00000000 0.41176471 0.74509804
v -0.04114497 1.33182663 0.22022722 1.00000000 0.41176471 0.74509804
v -0.01819243 1.34962780 0.18961321 1.00000000 0.41176471 0.74509804
v -0.04914325 1.36875646 0.20143537 1.00000000 0.41176471 0.74509804
v -0.02977278 1.33885503 0.20182663 1.00000000 0.41176471 0.74509804
v -0.01840059 1.36862781 0.18342604 1.00000000 0.41176471 0.74509804
v -0.04817337 1.35022722 0.20885503 1.00000000 0.41176471 0.74509804
v -0.01819243 1.41037220 0.18961321 1.00000000 0.41176471 0.74509804
v -0.04914325 1.39124354 0.20143537 1.00000000 0.41176471 0.74509804
v -0.02977278 1.42114497 0.20182663 1.00000000 0.41176471 0.74509804
v -0.01840059 1.39137219 0.18342604 1.00000000 0.41176471 0.74509804
v -0.04817337 1.40977278 0.20885503 1.00000000 0.41176471 0.74509804
v -0.03680118 1.38000000 0.19045444 1.00000000 0.41176471 0.74509804
v -0.04856463 1.42914325 0.26124354 1.00000000 0.41176471 0.74509804
v -0.06038679 1.39819243 0.28037220 1.00000000 0.41176471 0.74509804
v -0.04114497 1.42817337 0.27977278 1.00000000 0.41176471 0.74509804
v -0.05954556 1.41680118 0.25000000 1.00000000 0.41176471 0.74509804
v -0.04856463 1.33085675 0.26124354 1.00000000 0.41176471 0.74509804
v -0.06038679 1.36180757 0.28037220 1.00000000 0.41176471 0.74509804
v -0.04114497 1.33182663 0.27977278 1.00000000 0.41176471 0.74509804
v -0.05954556 1.34319882 0.25000000 1.00000000 0.41176471 0.74509804
v -0.01819243 1.34962780 0.31038679 1.00000000 0.41176471 0.74509804
v -0.04914325 1.36875646 0.29856463 1.00000000 0.41176471 0.74509804
v -0.02977278 1.33885503 0.29817337 1.00000000 0.41176471 0.74509804
v -0.01840059 1.36862781 0.31657396 1.00000000 0.41176471 0.74509804
v -0.04817337 1.35022722 0.29114497 1.00000000 0.41176471 0.74509804
v -0.01819243 1.41037220 0.31038679 1.00000000 0.41176471 0.74509804
v -0.04914325 1.39124354 0.29856463 1.00000000 0.41176471 0.74509804
v -0.02977278 1.42114497 0.29817337 1.00000000 0.41176471 0.74509804
v -0.01840059 1.39137219 0.31657396 1.00000000 0.41176471 0.74509804
v -0.04817337 1.40977278 0.29114497 1.00000000 0.41176471 0.74509804
v -0.03680118 1.38000000 0.30954556 1.00000000 0.41176471 0.74509804
v -0.06733569 1.38000000 0.23087134 1.00000000 0.41176471 0.74509804
v -0.06733569 1.38000000 0.26912866 1.00000000 0.41176471 0.74509804
v -0.06657396 1.39840059 0.23862781 1.00000000 0.41176471 0.74509804
v -0.06657396 1.36159941 0.23862781 1.00000000 0.41176471 0.74509804
v -0.06657396 1.39840059 0.26137219 1.00000000 0.41176471 0.74509804
v -0.06657396 1.36159941 0.26137219 1.00000000 0.41176471 0.74509804
f 729 866 782
f 866 766 868
f 782 868 745
f 866 868 782
f 766 867 883
f 867 740 880
f 883 880 769
f 867 880 883
f 745 881 783
f 881 769 879
f 783 879 734
f 881 879 783
f 766 883 868
f 883 769 881
f 868 881 745
f 883 881 868
f 729 782 771
f 782 745 784
f 771 784 741
f 782 784 771
f 745 783 788
f 783 734 786
f 788 786 746
f 783 786 788
f 741 787 772
f 787 746 785
f 772 785 730
f 787 785 772
f 745 788 784
f 788 746 787
f 784 787 741
f 788 787 784
f 729 771 798
f 771 741 800
f 798 800 750
f 771 800 798
f 741 772 803
f 772 730 801
f 803 801 751
f 772 801 803
f 750 804 799
f 804 751 802
f 799 802 736
f 804 802 799
f 741 803 800
f 803 751 804
f 800 804 750
f 803 804 800
f 729 798 849
f 798 750 851
f 849 851 762
f 798 851 849
f 750 799 862
f 799 736 860
f 862 860 765
f 799 860 862
f 762 864 850
f 864 765 861
f 850 861 739
f 864 861 850
f 750 862 851
f 862 765 864
f 851 864 762
f 862 864 851
f 729 849 866
f 849 762 869
f 866 869 766
f 849 869 866
f 762 850 887
f 850 739 885
f 887 885 770
f 850 885 887
f 766 889 867
f 889 770 886
f 867 886 740
f 889 886 867
f 762 887 869
f 887 770 889
f 869 889 766
f 887 889 869
f 730 785 824
f 785 746 826
f 824 826 757
f 785 826 824
f 746 786 839
f 786 734 837
f 839 837 760
f 786 837 839
f 757 841 825
f 841 760 838
f 825 838 738
f 841 838 825
f 746 839 826
f 839 760 841
f 826 841 757
f 839 841 826
f 734 879 790
f 879 769 882
f 790 882 747
f 879 882 790
f 769 880 884
f 880 740 875
f 884 875 768
f 880 875 884
f 747 877 789
f 877 768 874
f 789 874 733
f 877 874 789
f 769 884 882
f 884 768 877
f 882 877 747
f 884 877 882
f 740 886 871
f 886 770 890
f 871 890 767
f 886 890 871
f 770 885 888
f 885 739 853
f 888 853 763
f 885 853 888
f 767 873 870
f 873 763 852
f 870 852 731
f 873 852 870
f 770 888 890
f 888 763 873
f 890 873 767
f 888 873 890
f 739 861 856
f 861 765 865
f 856 865 764
f 861 865 856
f 765 860 863
f 860 736 806
f 863 806 752
f 860 806 863
f 764 858 855
f 858 752 805
f 855 805 735
f 858 805 855
f 765 863 865
f 863 752 858
f 865 858 764
f 863 858 865
f 736 802 818
f 802 751 820
f 818 820 756
f 802 820 818
f 751 801 809
f 801 730 807
f 809 807 753
f 801 807 809
f 756 822 819
f 822 753 808
f 819 808 737
f 822 808 819
f 751 809 820
f 809 753 822
f 820 822 756
f 809 822 820
f 732 828 778
f 828 758 830
f 778 830 744
f 828 830 778
f 758 829 836
f 829 738 833
f 836 833 759
f 829 833 836
f 744 834 779
f 834 759 832
f 779 832 733
f 834 832 779
f 758 836 830
f 836 759 834
f 830 834 744
f 836 834 830
f 732 778 774
f 778 744 780
f 774 780 742
f 778 780 774
f 744 779 781
f 779 733 776
f 781 776 743
f 779 776 781
f 742 777 773
f 777 743 775
f 773 775 731
f 777 775 773
f 744 781 780
f 781 743 777
f 780 777 742
f 781 777 780
f 732 774 794
f 774 742 796
f 794 796 749
f 774 796 794
f 742 773 793
f 773 731 791
f 793 791 748
f 773 791 793
f 749 797 795
f 797 748 792
f 795 792 735
f 797 792 795
f 742 793 796
f 793 748 797
f 796 797 749
f 793 797 796
f 732 794 810
f 794 749 812
f 810 812 754
f 794 812 810
f 749 795 815
f 795 735 813
f 815 813 755
f 795 813 815
f 754 817 811
f 817 755 814
f 811 814 737
f 817 814 811
f 749 815 812
f 815 755 817
f 812 817 754
f 815 817 812
f 732 810 828
f 810 754 831
f 828 831 758
f 810 831 828
f 754 811 846
f 811 737 843
f 846 843 761
f 811 843 846
f 758 848 829
f 848 761 844
f 829 844 738
f 848 844 829
f 754 846 831
f 846 761 848
f 831 848 758
f 846 848 831
f 733 832 789
f 832 759 835
f 789 835 747
f 832 835 789
f 759 833 842
f 833 738 838
f 842 838 760
f 833 838 842
f 747 840 790
f 840 760 837
f 790 837 734
f 840 837 790
f 759 842 835
f 842 760 840
f 835 840 747
f 842 840 835
f 731 775 870
f 775 743 872
f 870 872 767
f 775 872 870
f 743 776 876
f 776 733 874
f 876 874 768
f 776 874 876
f 767 878 871
f 878 768 875
f 871 875 740
f 878 875 871
f 743 876 872
f 876 768 878
f 872 878 767
f 876 878 872
f 735 792 855
f 792 748 857
f 855 857 764
f 792 857 855
f 748 791 854
f 791 731 852
f 854 852 763
f 791 852 854
f 764 859 856
f 859 763 853
f 856 853 739
f 859 853 856
f 748 854 857
f 854 763 859
f 857 859 764
f 854 859 857
f 737 814 819
f 814 755 823
f 819 823 756
f 814 823 819
f 755 813 816
f 813 735 805
f 816 805 752
f 813 805 816
f 756 821 818
f 821 752 806
f 818 806 736
f 821 806 818
f 755 816 823
f 816 752 821
f 823 821 756
f 816 821 823
f 738 844 825
f 844 761 847
f 825 847 757
f 844 847 825
f 761 843 845
f 843 737 808
f 845 808 753
f 843 808 845
f 757 827 824
f 827 753 807
f 824 807 730
f 827 807 824
f 761 845 847
f 845 753 827
f 847 827 757
f 845 827 847

